mada-medium.sfdir
StartChar: parenleft
Encoding: 40 40 49
Width: 1000
VWidth: 0
Flags: HW
LayerCount: 2
Fore
SplineSet
533.074070862 796.164515293 m 1
 622.925929138 741.835484707 l 1
 423.931470548 412.729264732 416.946832786 89.9129667606 625.191286739 -262.279266424 c 1
 534.808713261 -315.720733576 l 1
 309.053167214 66.0870332393 316.068529452 437.270735268 533.074070862 796.164515293 c 1
EndSplineSet
EndChar
StartChar: bracketleft
Encoding: 91 91 50
Width: 404
VWidth: 0
Flags: HW
LayerCount: 2
Fore
SplineSet
348.5 768.5 m 1
 348.5 663.5 l 1
 260 663.5 l 1
 260 -183.5 l 1
 349.5 -183.5 l 1
 349.5 -288.5 l 1
 155 -288.5 l 1
 155 768.5 l 1
 348.5 768.5 l 1
EndSplineSet
EndChar
StartChar: braceleft
Encoding: 123 123 48
Width: 1000
VWidth: 0
Flags: HW
LayerCount: 2
Fore
SplineSet
641 -185.5 m 1
 641 -290.5 l 1
 549.993294005 -290.5 447.5 -239.845517663 447.5 -115 c 0
 447.5 123 l 0
 447.5 157.082506393 435.822498587 171.320083234 406.411926108 180.963113147 c 0
 394.315771967 184.929155505 378.388610139 187.5 359 187.5 c 1
 359 188.5 358 292.5 359 292.5 c 1
 378.245696618 292.5 393.906493242 295.310841502 405.904007372 299.559846421 c 0
 435.436253205 310.018901226 447.5 326.883005865 447.5 358 c 0
 447.5 610 l 0
 447.5 722.568077004 552.410300894 771.849483395 642.38110081 769.481830766 c 1
 639.61889919 664.518169234 l 1
 577.589699106 666.150516605 552.5 639.431922996 552.5 610 c 0
 552.5 358 l 0
 552.5 313.571969623 536.80205113 271.574952348 506.211519889 240.937779429 c 1
 538.550447255 208.982759132 552.5 168.521360939 552.5 123 c 0
 552.5 -115 l 0
 552.5 -166.154482337 580.006705995 -185.5 641 -185.5 c 1
EndSplineSet
EndChar
StartChar: uni0627
Encoding: 1575 1575 0
Width: 1000
VWidth: 0
Flags: H
LayerCount: 2
Fore
SplineSet
473.5 660 m 1
 578.5 660 l 1
 578.5 109.819937816 l 2
 578.5 46.912109375 538.790120746 0.5 473 0.5 c 1
 473.5 660 l 1
EndSplineSet
EndChar
StartChar: uni062D
Encoding: 1581 1581 1
Width: 1000
VWidth: 0
Flags: HW
LayerCount: 2
Fore
SplineSet
643 -185 m 1
 643 -291 l 1
 402 -291 l 2
 324 -292 266 -233 266 -158 c 2
 266 -33 l 2
 266 39 321 106 406 106 c 2
 543 106 l 1
 539 110 538 110 536 113 c 0
 490 164 457 225 362 261 c 1
 400 359 l 1
 527 311 582 218 614 183 c 0
 662 130 666 136 734 136 c 1
 734 83 l 0
 734 60 717 0 655 0 c 2
 405 0 l 2
 388 0 370 -13 370 -33 c 2
 370 -158 l 2
 370 -175 380 -185 402 -185 c 2
 643 -185 l 1
EndSplineSet
EndChar
StartChar: uni0631
Encoding: 1585 1585 3
Width: 1000
VWidth: 0
Flags: HW
LayerCount: 2
Fore
SplineSet
490.5 187 m 1
 595.5 187 l 1
 595.5 -1 l 2
 595.5 -108.12219483 516.484305946 -200.5 404 -200.5 c 2
 302 -200.5 l 1
 302 -95.5 l 1
 404 -95.5 l 2
 453.515694054 -95.5 490.5 -57.8778051701 490.5 -1 c 2
 490.5 187 l 1
EndSplineSet
EndChar
StartChar: uni0633
Encoding: 1587 1587 5
Width: 1000
VWidth: 0
Flags: HW
LayerCount: 2
Fore
SplineSet
632 376 m 1
 737 376 l 1
 737 104 l 2
 737 44 688 0 631 0 c 2
 549 0 l 1
 549 105 l 1
 651 105 l 17
 652 105 632 84 632 84 c 1
 632 376 l 1
816 376 m 1
 921 376 l 1
 921 104 l 2
 921 44 872 0 815 0 c 2
 733 0 l 1
 733 105 l 1
 835 105 l 17
 836 105 816 84 816 84 c 1
 816 376 l 1
448 378 m 1
 553 378 l 1
 553 -97 l 2
 553 -156 506 -202 448 -202 c 2
 181 -202 l 2
 119 -202 79 -146 79 -93 c 2
 79 185 l 1
 184 185 l 1
 184 -116 l 17
 164 -97 l 1
 468 -97 l 1
 448 -116 l 9
 448 -116 l 1
 448 378 l 1
EndSplineSet
EndChar
StartChar: uni0635
Encoding: 1589 1589 6
Width: 1139
VWidth: 0
Flags: HW
LayerCount: 2
Fore
SplineSet
474 277 m 1
 579 277 l 1
 579 -97 l 2
 579 -156 532 -202 474 -202 c 2
 207 -202 l 2
 145 -202 105 -146 105 -93 c 2
 105 185 l 1
 210 185 l 1
 210 -116 l 17
 190 -97 l 1
 494 -97 l 1
 474 -116 l 9
 474 -116 l 1
 474 277 l 1
535.5 93.5 m 1
 628.20703125 222.06640625 749.987304688 431.7109375 922.297851562 367.837890625 c 0
 998.649414062 335.76953125 1030.25292969 263.7734375 1032.48046875 172.422851562 c 0
 1034.47265625 105.6875 l 2
 1036.55078125 45.4462890625 986.700195312 -0.5 929 -0.5 c 2
 527 -0.5 l 1
 527 104.5 l 1
 950 104.5 l 1
 950.1796875 104.5 928.459960938 84.5 928.459960938 84.5 c 1
 927.51953125 169.577148438 l 2
 926.724609375 241.459960938 908.829101562 259.053710938 883.71484375 270.150390625 c 0
 833.087890625 287.890625 759 237 632 44 c 1
 535.5 93.5 l 1
EndSplineSet
EndChar
StartChar: uni0637
Encoding: 1591 1591 7
Width: 1000
VWidth: 0
Flags: HW
LayerCount: 2
Fore
SplineSet
311.5 93.5 m 1
 404.20703125 222.06640625 525.987304688 431.7109375 698.297851562 367.837890625 c 0
 774.649414062 335.76953125 806.252929688 263.7734375 808.48046875 172.422851562 c 0
 810.47265625 105.6875 l 2
 812.55078125 45.4462890625 762.700195312 -0.5 705 -0.5 c 2
 241 -0.5 l 1
 241 104.5 l 1
 726 104.5 l 1
 726.1796875 104.5 704.459960938 84.5 704.459960938 84.5 c 1
 703.51953125 169.577148438 l 2
 702.724609375 241.459960938 684.829101562 259.053710938 659.71484375 270.150390625 c 0
 609.087890625 287.890625 535 237 408 44 c 1
 311.5 93.5 l 1
320.5 661 m 1
 425.5 661 l 1
 425.5 88 l 1
 320.5 88 l 1
 320.5 661 l 1
EndSplineSet
EndChar
StartChar: uni0639
Encoding: 1593 1593 8
Width: 1000
VWidth: 0
Flags: HW
LayerCount: 2
Fore
SplineSet
665 -168 m 1
 665 -273 l 1
 377 -273 l 2
 322 -273 283 -226 283 -173 c 2
 283 5 l 2
 283 58 322 105 379 105 c 2
 665 105 l 1
 665 0 l 1
 368 0 l 1
 388 20 l 1
 388 -188 l 1
 368 -168 l 1
 665 -168 l 1
646 304 m 1
 606 206 l 1
 590 213 576 218 564 221 c 0
 507 237 478 226 472 221 c 0
 471 220 448 185 536 89 c 1
 458 17 l 1
 368 114 324 228 401 298 c 0
 449 342 520 343 592 323 c 0
 610 318 628 311 646 304 c 1
EndSplineSet
EndChar
StartChar: uni0643
Encoding: 1603 1603 10
Width: 1000
VWidth: 0
Flags: HW
LayerCount: 2
Fore
SplineSet
549.452148438 464.748046875 m 1
 549.452148438 394.748046875 l 1
 485.811971044 394.748046875 l 1
 506.76329442 350.322848017 l 2
 511.672249289 338.41499939 522.5 320 509 301.5 c 0
 496.815658637 284.802939614 476.162970601 283.723632812 467.083006942 283.723632812 c 2
 356.866210938 283.723632812 l 1
 356.866210938 353.723632812 l 1
 427.765437703 353.723632812 l 1
 407.093497506 397.556427409 l 2
 407.093497506 397.556427409 391.427360439 423.998694827 404.492551962 444.5 c 0
 411.400902516 455.340269942 426.268686705 464.747895605 449.572379941 464.747924222 c 2
 549.452148438 464.748046875 l 1
635 658 m 1
 740 658 l 1
 740 104 l 2
 740 44 691 0 634 0 c 2
 312 0 l 1
 312 105 l 1
 654 105 l 17
 655 105 635 84 635 84 c 1
 635 658 l 1
327 105 m 1
 414 0 l 1
 312 0 l 1
 225 105 l 1
 327 105 l 1
EndSplineSet
EndChar
StartChar: uni0644
Encoding: 1604 1604 9
Width: 1000
VWidth: 0
Flags: HW
LayerCount: 2
Fore
SplineSet
631.5 696 m 1
 736.5 696 l 1
 736.5 -42 l 2
 736.5 -97.018146365 692.259033464 -148.5 630 -148.5 c 2
 371 -148.5 l 2
 312.701913068 -148.5 263.5 -103.905609306 263.5 -43 c 2
 263.5 146 l 1
 368.5 146 l 1
 368.5 -64 l 17
 348 -43.5 l 9
 652 -43.5 l 17
 652.000117874 -43.5 631.5 -64.0000244141 631.5 -64 c 9
 631.5 696 l 1
EndSplineSet
EndChar
StartChar: uni0647
Encoding: 1607 1607 12
Width: 1000
VWidth: 0
Flags: HW
LayerCount: 2
Fore
SplineSet
606.5 373.5 m 1
 506.538461538 415.192307692 l 1
 466.563177635 319.251626325 421.975716676 293.90048697 348.00108156 224.214236498 c 0
 289.613911649 169.211830061 302.068899991 81.0003701456 351.157395075 36.5385925685 c 0
 376.085864927 13.9596954163 409.979714046 0.5 447 0.5 c 2
 587 0.5 l 2
 646.433037821 0.5 691.5 45.351134792 691.5 105 c 2
 691.5 364 l 1
 586.5 364.174804688 l 1
 586.5 85.7568359375 l 1
 607.243164062 105.5 l 1
 447 105.5 l 2
 435.795898438 105.5 427.833850786 109.11378047 422.422731908 113.682018751 c 0
 412.006368852 122.475843012 408.356818596 133.720487643 421.673925864 149.360314453 c 0
 478.884916017 202.945573018 540.319458008 242.480773926 606.5 373.5 c 1
EndSplineSet
EndChar
StartChar: uni0648
Encoding: 1608 1608 13
Width: 1000
VWidth: 0
Flags: HW
LayerCount: 2
Fore
SplineSet
597.073242188 -0.5 m 1
 441 -0.5 l 2
 350.99649351 -0.5 279.690296471 73.1449705206 284.634067515 158.83700194 c 0
 296.841302508 296.168395616 410.753442526 375.656671766 509.088263553 376.41867821 c 0
 581.691658639 376.981289239 652.894502618 326.417049522 653.5 233.170452749 c 2
 653.5 -1 l 2
 653.5 -98.6781654107 580.00056632 -199.5 463 -199.5 c 2
 270 -199.5 l 1
 270 -94.5 l 1
 463 -94.5 l 2
 511.99943368 -94.5 548.5 -50.9685657521 548.5 -0.5 c 2
 548.5 104.5 l 1
 548.5 212.829101562 l 2
 548.290039062 245.1015625 536.967066694 271.631561364 509.901894713 271.421830617 c 0
 463.551657324 271.062657954 396.929727659 228.553586991 389.380102304 151.293792954 c 0
 388.83401348 131.65999576 409.263168018 104.5 441 104.5 c 2
 597.1953125 104.5 l 1
 597.073242188 -0.5 l 1
EndSplineSet
EndChar
StartChar: uni0649
Encoding: 1609 1609 14
Width: 1000
VWidth: 0
Flags: HW
LayerCount: 2
Fore
SplineSet
739 105.5 m 1
 739 0.5 l 1
 590.833007812 0.5 l 1
 600.5 13.5 l 1
 715.619151879 -125.737076495 l 2
 771.397460938 -193.201171875 705.664674509 -273.5 632 -273.5 c 2
 402 -273.5 l 2
 324.043018583 -273.5 208.5 -226.965838492 208.5 -96 c 2
 208.5 100 l 1
 313.5 100 l 1
 313.5 -96 l 2
 313.5 -147.034161508 354.95703125 -168.5 412 -168.5 c 2
 635.125 -168.5 l 1
 626.125 -182.125 l 1
 523.536227785 -58.4504989549 l 2
 464.469726562 12.7568359375 509.162589697 105.5 601 105.5 c 2
 739 105.5 l 1
EndSplineSet
EndChar
StartChar: uni064C
Encoding: 1612 1612 165
Width: 0
VWidth: 0
Flags: HW
LayerCount: 2
Fore
SplineSet
0.194411514231 68.4958284993 m 1
 -7.55037145725 89.7735940598 l 1
 -15.619629397 113.130140277 -3.96402424363 138.67128543 19.4801032076 145.703422313 c 1
 55.2909206285 155.245336462 85.7433785639 133.857415496 95.0972047952 108.843782978 c 0
 102.126478959 90.0463757526 95.4230663525 65.9097109143 71.130789421 57.0680486436 c 0
 -21.4290347311 23.3794796944 l 0
 -46.2296672442 14.3533422912 -78.9822990534 23.6191679204 -89.9572778495 53.774307816 c 0
 -99.6193872245 80.3202062535 l 0
 -102.879582005 89.2773393352 -98.1173955782 99.4900518193 -89.1602624965 102.7502466 c 0
 -80.2031294148 106.01044138 -69.9904169307 101.248254953 -66.7302221505 92.2911218715 c 0
 -57.0681127755 65.745223434 l 0
 -53.8497321966 56.9023164546 -43.3679890058 52.6407983338 -33.3990902689 56.2689578056 c 0
 0.194411514231 68.4958284993 l 1
33.083704857 80.4663917181 m 1
 59.160226204 89.9573419814 l 0
 64.3821608268 91.8579700068 64.0329310055 91.9889664771 62.3143713565 96.5846707866 c 0
 59.0069818488 105.429161126 45.585751456 116.126331994 29.0992756387 112.04410593 c 1
 27.1960425678 111.301154621 23.5846623952 106.836323278 25.4370902073 101.474452815 c 1
 33.083704857 80.4663917181 l 1
EndSplineSet
EndChar
StartChar: uni064E
Encoding: 1614 1614 167
Width: 0
VWidth: 0
Flags: HW
LayerCount: 2
Fore
SplineSet
-82.8543441394 19.4925047851 m 0
 -86.1238827856 28.4462313885 -81.3723546309 38.6639070556 -72.4186280274 41.9334457019 c 0
 60.4134032226 90.4383285144 l 0
 69.367129826 93.7078671606 79.5848054931 88.9563390059 82.8543441394 80.0026124024 c 0
 86.1238827856 71.048885799 81.3723546309 60.8312101319 72.4186280274 57.5616714856 c 0
 -60.4134032226 9.05678867314 l 0
 -69.367129826 5.78725002687 -79.5848054931 10.5387781816 -82.8543441394 19.4925047851 c 0
EndSplineSet
EndChar
StartChar: uni064F
Encoding: 1615 1615 168
Width: 0
VWidth: 0
Flags: HW
LayerCount: 2
Back
SplineSet
-8.806640625 53.4638671875 m 1
 -20.86328125 86.587890625 l 1
 -25.84375 101.00390625 -18.03125 116.0859375 -5.55859375 119.827148438 c 1
 38.095703125 131.458984375 71.5185546875 77.64453125 35.3388671875 64.4755859375 c 2
 -76.0146484375 23.947265625 l 2
EndSplineSet
Fore
SplineSet
-29.6120005342 59.4590677031 m 1
 -37.3570120823 80.7374612473 l 1
 -45.426270022 104.094007464 -33.7706648686 129.635152618 -10.3265374174 136.6672895 c 1
 25.4842455648 146.209194473 55.9370514542 124.821358868 65.2909828792 99.8074481031 c 0
 72.3203717616 81.0097363984 65.6169399385 56.8732057503 41.3240834415 48.0309154819 c 0
 -70.0294321835 7.50259516941 l 0
 -78.9866131532 4.2425319608 -89.1992556845 9.00486840129 -92.4593188931 17.962049371 c 0
 -95.7193821017 26.9192303407 -90.9570456612 37.131872872 -81.9998646915 40.3919360806 c 0
 -29.6120005342 59.4590677031 l 1
3.27734038428 71.4295002138 m 1
 29.3536509335 80.9202563931 l 0
 34.5758026602 82.8210530902 34.2267003769 82.9526554629 32.5081499322 87.5483345966 c 0
 29.2007135441 96.3929492204 15.7791537983 107.090208595 -0.707365096138 103.007973075 c 1
 -2.61059796648 102.265021844 -6.22197822937 97.8001904645 -4.36955041775 92.4383200027 c 1
 3.27734038428 71.4295002138 l 1
EndSplineSet
EndChar
StartChar: uni0651
Encoding: 1617 1617 170
Width: 0
VWidth: 0
Flags: HW
LayerCount: 2
Back
SplineSet
-58 15 m 6
 -72 11 -75 21 -75 29 c 6
 -75 98 l 5
-57 15 m 5
 -13 30 l 6
 -6.1103515625 32.3486328125 0 38 0 45 c 6
 0 111 l 5
28 45 m 5
 64 58 l 6
 71.1953125 60.490234375 77 66 77 73 c 6
 77 139 l 5
EndSplineSet
Fore
SplineSet
-31.1733309163 22.8076197382 m 0
 -28.554687986 13.6423694824 -34.0271300059 3.79197384653 -43.1923802618 1.17333091629 c 0
 -54.2389141749 -1.98282163032 -67.3694110845 -0.0926440231648 -75.1947690385 9.29931391179 c 0
 -82.0309841225 17.5041072109 -82.5 26.247811901 -82.5 32 c 0
 -82.5 98 l 0
 -82.5 107.532004146 -74.5320041465 115.5 -65 115.5 c 0
 -55.4679958535 115.5 -47.5 107.532004146 -47.5 98 c 0
 -47.5 35.5084680614 l 1
 -41.0624309514 35.0521438286 -33.4226379601 30.6801943915 -31.1733309163 22.8076197382 c 0
-10.8682142864 12.2191343921 m 2
 -42.0114113996 1.43879692987 l 0
 -51.01902257 -1.67922232142 -61.1550833015 3.24400717673 -64.2731025528 12.2516183471 c 0
 -67.391121804 21.2592295175 -62.4678923059 31.395290249 -53.4602811355 34.5133095003 c 0
 -18.724434868 46.5372562852 l 0
 -18.4358070784 46.6371659047 -18.025212319 46.7644997749 -17.8076197382 46.8266690837 c 0
 -17.6867760731 46.8611958452 -17.5 46.94070978 -17.5 46.94070978 c 1
 -17.5 111 l 0
 -17.5 120.532004146 -9.53200414648 128.5 0 128.5 c 0
 9.53200414648 128.5 17.5 120.532004146 17.5 111 c 0
 17.5 45 l 0
 17.5 28.3430608961 1.86662930333 16.5396358181 -10.8682142864 12.2191343921 c 2
11.4627437148 39.275565132 m 0
 8.3447244635 48.2831763024 13.2679539616 58.4192370339 22.275565132 61.5372562852 c 0
 48.2764902246 70.5375764806 l 0
 48.7396907891 70.6978861222 49.3933056619 71.0191044853 49.5 71.0757798565 c 1
 49.5 135 l 0
 49.5 144.532004146 57.4679958535 152.5 67 152.5 c 0
 76.5320041465 152.5 84.5 144.532004146 84.5 135 c 0
 84.5 69 l 0
 84.5 51.3751577469 70.7198101592 41.2681463721 59.7235097754 37.4624235194 c 0
 33.724434868 28.4627437148 l 0
 24.7168236976 25.3447244635 14.5807629661 30.2679539616 11.4627437148 39.275565132 c 0
EndSplineSet
EndChar
StartChar: uni0652
Encoding: 1618 1618 171
Width: 0
VWidth: 662
Flags: HW
LayerCount: 2
Fore
SplineSet
-37.5 73.6361999512 m 0
 -37.5 52.9431768907 -20.6940019922 36.1361999512 0 36.1361999512 c 0
 20.6930230604 36.1361999512 37.5 52.942197959 37.5 73.6361999512 c 0
 37.5 94.3292230116 20.6940019922 111.136199951 0 111.136199951 c 0
 -20.6930230604 111.136199951 -37.5 94.3302019433 -37.5 73.6361999512 c 0
-72.5 73.6361999512 m 0
 -72.5 113.662197959 -40.0269769396 146.136199951 0 146.136199951 c 0
 40.0259980078 146.136199951 72.5 113.663176891 72.5 73.6361999512 c 0
 72.5 33.6102019433 40.0269769396 1.13619995117 0 1.13619995117 c 0
 -40.0259980078 1.13619995117 -72.5 33.6092230116 -72.5 73.6361999512 c 0
EndSplineSet
EndChar
StartChar: uni0660
Encoding: 1632 1632 174
Width: 600
VWidth: 0
Flags: HW
LayerCount: 2
Fore
SplineSet
225 329 m 0
 225 370.400390625 258.599609375 404 300 404 c 0
 341.400390625 404 375 370.400390625 375 329 c 0
 375 287.599609375 341.400390625 254 300 254 c 0
 258.599609375 254 225 287.599609375 225 329 c 0
EndSplineSet
EndChar
StartChar: uni0661
Encoding: 1633 1633 15
Width: 600
VWidth: 0
Flags: HW
LayerCount: 2
Fore
SplineSet
247.5 659 m 1
 352.5 659 l 1
 352.5 0 l 1
 247.5 0 l 1
 247.5 659 l 1
EndSplineSet
EndChar
StartChar: uni0662
Encoding: 1634 1634 16
Width: 600
VWidth: 0
Flags: HW
LayerCount: 2
Fore
SplineSet
266 0 m 1
 161 0 l 1
 161 553 l 2
 161 613 210 657 267 657 c 2
 439 657 l 1
 439 552 l 1
 247 552 l 17
 246 552 266 573 266 573 c 1
 266 0 l 1
EndSplineSet
EndChar
StartChar: uni0663
Encoding: 1635 1635 17
Width: 600
VWidth: 0
Flags: HW
LayerCount: 2
Fore
SplineSet
247.25 660 m 1
 352.25 660 l 1
 352.25 477 l 2
 352.25 417 303.25 373 246.25 373 c 2
 165.25 373 l 1
 165.25 478 l 1
 266.25 478 l 17
 267.25 478 247.25 457 247.25 457 c 1
 247.25 660 l 1
431.25 660 m 1
 536.25 660 l 1
 536.25 477 l 2
 536.25 417 487.25 373 430.25 373 c 2
 348.25 373 l 1
 348.25 478 l 1
 450.25 478 l 17
 451.25 478 431.25 457 431.25 457 c 1
 431.25 660 l 1
63.75 660 m 1
 168.75 660 l 1
 168.75 0 l 1
 63.75 0 l 1
 63.75 660 l 1
EndSplineSet
EndChar
StartChar: uni0664
Encoding: 1636 1636 18
Width: 1000
VWidth: 0
Flags: HW
LayerCount: 2
Fore
SplineSet
514.802031901 650.224836134 m 1
 577.197968099 565.775163866 l 1
 449 471.055646036 l 2
 414 445.25 l 1
 413.75 465.5 l 1
 526 388 l 2
 563.327148438 362.228515625 559.938476562 318.856445312 538 287 c 2
 422.995909733 120 l 2
 404.165039062 92.6552734375 l 1
 392.814453125 105.359375 l 1
 656.185511209 104.499672243 l 1
 655.814488791 -0.499672242703 l 1
 372.907244106 0.5 l 2
 332.434053001 0.5 291.617327765 32.2455734424 291.663381815 75.5036627598 c 0
 291.712551503 121.688239421 318.20272423 153.717616431 332.079430797 173.235790291 c 2
 435.795430945 322.617790504 l 1
 351.257236798 380.73779898 l 2
 286.898951593 425.073506565 301.338248728 493.374482598 358.000412904 534.371410632 c 2
 514.802031901 650.224836134 l 1
EndSplineSet
EndChar
StartChar: uni0665
Encoding: 1637 1637 19
Width: 577
VWidth: 0
Flags: HW
LayerCount: 3
Fore
SplineSet
373.954101562 611.807617188 m 0
 466.810546875 554.608398438 526.244140625 395.193359375 527.328125 256.331054688 c 0
 528.323242188 128.721679688 475.861328125 -12.3896484375 290.956054688 -12.4990234375 c 0
 109.54296875 -12.60546875 46.517578125 108.290039062 50.1474609375 268.427734375 c 0
 53.3115234375 408.022460938 120.157226562 555.674804688 199.772460938 607.880859375 c 0
 253.219726562 643.043945312 319.200195312 644.948242188 373.954101562 611.807617188 c 0
319.1875 522.220703125 m 0
 298.16796875 534.7265625 280.02734375 534.995117188 257.44921875 520.140625 c 0
 213.298828125 491.189453125 164.265625 368.22265625 159.436523438 262.427734375 c 0
 154.874023438 162.485351562 184.322265625 92.83203125 290.231445312 92.4990234375 c 0
 389.82421875 92.185546875 423.116210938 154.854492188 422.331054688 255.51171875 c 0
 421.434570312 370.435546875 358.625976562 497.653320312 319.1875 522.220703125 c 0
EndSplineSet
EndChar
StartChar: uni0666
Encoding: 1638 1638 20
Width: 1000
VWidth: 0
Flags: HW
LayerCount: 2
Fore
SplineSet
607 0 m 1
 712 0 l 1
 712 552 l 2
 712 612 663 656 606 656 c 2
 341 656 l 1
 341 551 l 1
 626 551 l 17
 627 551 607 572 607 572 c 1
 607 0 l 1
EndSplineSet
EndChar
StartChar: uni0667
Encoding: 1639 1639 21
Width: 1000
VWidth: 0
Flags: HW
LayerCount: 2
Fore
SplineSet
643.209389129 651.287732965 m 1
 744.790610871 624.712267035 l 1
 594.025390625 47.7880859375 l 2
 585.86328125 16.5888671875 557.643855235 -8.53976388776 516.054421304 -8.97575958582 c 0
 483.769554111 -9.31421245421 451.627929688 11.5458984375 440.583984375 46.044921875 c 2
 255.999731129 621.993029243 l 1
 356.000268871 654.006970757 l 1
 525.5 124 l 1
 505.458984375 124.100585938 l 1
 643.209389129 651.287732965 l 1
EndSplineSet
EndChar
StartChar: uni0669
Encoding: 1641 1641 23
Width: 600
VWidth: 0
Flags: HW
LayerCount: 2
Fore
SplineSet
417.490234375 283.162109375 m 1
 316.370117188 285.823242188 210.271484375 259.916015625 138.825195312 363.116210938 c 0
 137.965820312 364.358398438 l 1
 137.178710938 365.647460938 l 0
 74.6474609375 468.092773438 118.692382812 584.177734375 197.461914062 628.772460938 c 0
 268.922851562 675.748046875 401.309570312 673.118164062 464.182617188 576.40625 c 0
 482.40234375 548.37890625 492.490234375 513.599609375 492.490234375 475 c 2
 492.490234375 0 l 1
 387.490234375 0 l 1
 387.490234375 475 l 2
 387.490234375 496.861328125 382.170898438 510.5234375 375.18359375 520.616210938 c 0
 351.12890625 555.362304688 281.389648438 559.353515625 255.05078125 540.958007812 c 0
 252.534179688 539.200195312 l 1
 223.609375 523.666015625 195.526367188 473.913085938 226.024414062 421.642578125 c 0
 257.786132812 376.873046875 292.331054688 391.676757812 417.490234375 388.270507812 c 1
 417.490234375 283.162109375 l 1
EndSplineSet
EndChar
StartChar: uni066A
Encoding: 1642 1642 175
Width: 522
Flags: HMW
LayerCount: 2
Fore
SplineSet
39 -12 m 1
 397 667 l 1
 483 667 l 1
 124 -12 l 1
 39 -12 l 1
EndSplineSet
Refer: 173 1632 N 1 0 0 1 240 -266 2
Refer: 173 1632 N 1 0 0 1 -68 263 2
EndChar
StartChar: uni066E
Encoding: 1646 1646 4
Width: 1000
VWidth: 0
Flags: HW
LayerCount: 2
Fore
SplineSet
-35 621 m 1
728.5 300 m 1,1,-1
 833.5 300 l 1,2,-1
 833.5 105 l 2,3,4
 833.5 46.7666705566 786.340006883 0.5 729 0.5 c 2,9,-1
 337 0.5 l 2,10,11
 249.991998342 0.5 166.5 65.712420603 166.5 160 c 2,12,-1
 166.5 300 l 1,13,-1
 271.5 300 l 1,14,-1
 271.5 160 l 2,15,16
 271.5 134.287579397 298.0078125 105.5 337 105.5 c 2,17,-1
 748.180664062 105.5 l 1,18,19
 728.5 85.75390625 l 1,20,-1
 728.5 300 l 1,1,-1
EndSplineSet
EndChar
StartChar: uni066F
Encoding: 1647 1647 52
Width: 1000
VWidth: 0
Flags: HW
LayerCount: 2
Fore
SplineSet
712.5 20.431640625 m 1
 604.955078125 16.529296875 471.695218684 -14.0890923975 409.067267919 89.846655681 c 0
 351.058304266 185.561445707 400.163077314 296.810248992 469.513360714 342.100229988 c 0
 546.286245835 391.14957326 676.898030796 385.708460053 737.53766351 289.682070184 c 0
 754.950380034 262.108019505 764.5 228.265095452 764.5 191 c 2
 764.5 -93 l 2
 764.5 -147.62826137 720.333850813 -199.5 657 -199.5 c 2
 235 -199.5 l 2
 154.116603923 -199.5 83.5 -141.760341099 83.5 -53 c 2
 83.5 189 l 1
 188.5 189 l 1
 188.5 -53 l 2
 188.5 -80.2396589009 201.883789062 -94.5 235 -94.5 c 2
 679 -94.5 l 17
 659.5 -113.995117188 l 1
 659.5 191 l 2
 659.5 227.800602989 633.444957663 256.053311402 600 265.289923344 c 0
 576.969369366 271.650373853 550.434531178 268.993623763 526.49024375 253.901471823 c 0
 497.304859487 234.53101806 477.051213004 180.257850797 498.932732081 144.153344319 c 0
 526.109368896 99.0516917335 547.287109375 88.3798828125 712.5 96.4375 c 1
 712.5 20.431640625 l 1
EndSplineSet
EndChar
StartChar: uni0670
Encoding: 1648 1648 171
Width: 0
VWidth: -36
Flags: HW
AnchorPoint: "arMarkAbove" 0 0 mark 0
AnchorPoint: "arMarkAboveDot" 0 0 mark 0
LayerCount: 3
Fore
SplineSet
18 178 m 25
 18 33 l 2
 18 29 18 0 -18 0 c 1
 -18 178 l 25
 18 178 l 25
EndSplineSet
EndChar
StartChar: uni06D2
Encoding: 1746 1746 26
Width: 1000
VWidth: 0
Flags: HW
LayerCount: 2
Fore
SplineSet
581.972696659 264.427224105 m 1
 526.027303341 175.572775895 l 1
 475.797048535 207.199232625 406.136179489 230.032279452 358.930890489 162.780908821 c 0
 353.901677602 155.656190566 334.111573526 65.6446684873 207.383613389 32.2345699056 c 0
 166.150470448 21.4354134211 150.422247657 -14.9451022148 157.193132364 -40.5109983798 c 0
 162.20207975 -59.4240702069 184.268826242 -92.5 271 -92.5 c 0
 897 -92.5 l 1
 897 -197.5 l 1
 271 -197.5 l 0
 156.227818053 -197.5 76.4378238579 -145.724008708 55.6924642705 -67.3924859998 c 0
 33.0034129389 18.278139864 87.3610972484 109.34149693 180.657500519 133.776269215 c 0
 273.846240499 158.344209756 230.106534452 162.355443177 273.069109511 223.219091179 c 0
 371.863820511 363.967720548 524.202951465 300.800767375 581.972696659 264.427224105 c 1
EndSplineSet
EndChar
StartChar: ar1Dot.above
Encoding: 65588 -1 68
Width: 0
VWidth: 0
Flags: HW
AnchorPoint: "arMarkAboveDot" 0 110 basemark 0
AnchorPoint: "arDotAbove" 0 0 mark 0
LayerCount: 3
Fore
SplineSet
-52 0 m 0
 -52 29 -29 52 0 52 c 0
 29 52 52 29 52 0 c 0
 52 -29 29 -52 0 -52 c 0
 -29 -52 -52 -29 -52 0 c 0
EndSplineSet
EndChar
StartChar: ar1Noqta.above
Encoding: 65588 -1 68
Width: 0
VWidth: 0
Flags: HW
AnchorPoint: "arMarkAboveNuqta" 0 110 basemark 0
AnchorPoint: "arNuqtaAbove" 0 0 mark 0
LayerCount: 2
Fore
SplineSet
-52.5 0 m 0
 -52.5 28.98046875 -28.98046875 52.5 0 52.5 c 0
 28.98046875 52.5 52.5 28.98046875 52.5 0 c 0
 52.5 -28.98046875 28.98046875 -52.5 0 -52.5 c 0
 -28.98046875 -52.5 -52.5 -28.98046875 -52.5 0 c 0
EndSplineSet
EndChar
StartChar: arAin.fina
Encoding: 65605 -1 85
Width: 487
VWidth: 34
Flags: HW
LayerCount: 2
Fore
SplineSet
507 105 m 1
 507 0 l 1
 476 0 l 1
 476 105 l 1
 507 105 l 1
EndSplineSet
Refer: 8 -1 N 1 0 0 1 0 0 2
Colour: ff00ff
EndChar
StartChar: arAin.init
Encoding: 65567 -1 41
Width: 573
VWidth: 0
Flags: HW
AnchorPoint: "arMarkAbove" 253 493 basechar 0
AnchorPoint: "arDotAbove" 253 493 basechar 0
AnchorPoint: "arMarkBelow" 254 -149 basechar 0
AnchorPoint: "arDotBelow" 254 -149 basechar 0
LayerCount: 3
Fore
SplineSet
0 0 m 1
 0 105 l 1
 468 105 l 1
 468 0 l 1
 0 0 l 1
433 357 m 1
 403 257 l 1
 274 296 208 276 194 262 c 0
 187 255 172 205 278 102 c 1
 204 26 l 1
 99 128 38 251 119 335 c 0
 183 401 298 398 433 357 c 1
EndSplineSet
EndChar
StartChar: arAin.isol
Encoding: 65544 -1 8
Width: 592
VWidth: 0
Flags: HW
AnchorPoint: "arMarkAbove" 313 463 basechar 0
AnchorPoint: "arDotAbove" 313 463 basechar 0
AnchorPoint: "arMarkBelow" 336 -82 basechar 0
AnchorPoint: "arDotBelow" 336 -82 basechar 0
LayerCount: 3
Fore
SplineSet
487 -168 m 1
 487 -273 l 1
 199 -273 l 2
 144 -273 105 -226 105 -173 c 2
 105 5 l 2
 105 58 144 105 201 105 c 2
 487 105 l 1
 487 0 l 1
 190 0 l 1
 210 20 l 1
 210 -188 l 1
 190 -168 l 1
 487 -168 l 1
468 304 m 1
 428 206 l 1
 412 213 398 218 386 221 c 0
 329 237 300 226 294 221 c 0
 293 220 270 185 358 89 c 1
 280 17 l 1
 190 114 146 228 223 298 c 0
 271 342 342 343 414 323 c 0
 432 318 450 311 468 304 c 1
EndSplineSet
EndChar
StartChar: arAin.medi
Encoding: 65579 -1 56
Width: 468
VWidth: -36
Flags: HW
LayerCount: 2
Fore
SplineSet
488 105 m 1
 488 0 l 1
 457 0 l 1
 457 105 l 1
 488 105 l 1
EndSplineSet
Refer: 41 -1 N 1 0 0 1 0 0 2
Colour: ff00ff
EndChar
StartChar: arAlef.fina.1
Encoding: 65557 -1 31
Width: 0
VWidth: 0
Flags: HW
AnchorPoint: "arNuqtaBelow" 0 -174 basechar 0
AnchorPoint: "arNuqtaAbove" 0 848 basechar 0
LayerCount: 2
Back
SplineSet
338 660 m 1
 443 660 l 1
 443 104 l 2
 443 44 394 0 337 0 c 2
 105 0 l 1
 105 105 l 1
 357 105 l 17
 358 105 338 84 338 84 c 1
 338 660 l 1
135.6015625 665.295898438 m 1
 236.3984375 694.704101562 l 1
 367.3984375 245.704101562 l 1
 266.6015625 216.295898438 l 1
 135.6015625 665.295898438 l 1
253 263 m 1
 356 263 l 17
 345 200 307 141 216 90 c 1
 133 90 l 1
 201 123 255 161 253 263 c 1
EndSplineSet
Fore
SplineSet
135.6015625 665.295898438 m 1
 236.3984375 694.704101562 l 1
 367.3984375 245.704101562 l 1
 266.6015625 216.295898438 l 1
 135.6015625 665.295898438 l 1
253 263 m 1
 356 263 l 17
 345 200 307 141 216 90 c 1
 133 90 l 1
 201 123 255 161 253 263 c 1
EndSplineSet
EndChar
StartChar: arAlef.fina
Encoding: 65578 -1 55
Width: 277
VWidth: 34
Flags: HW
AnchorPoint: "arMarkBelow" 136 -29 basechar 0
AnchorPoint: "arDotBelow" 136 -29 basechar 0
AnchorPoint: "arHamzaBelow" 136 -29 basechar 0
AnchorPoint: "arMarkAbove" 136 664 basechar 0
AnchorPoint: "arDotAbove" 136 664 basechar 0
AnchorPoint: "arHamzaAbove" 136 664 basechar 0
LayerCount: 2
Fore
SplineSet
297 105 m 1
 297 0 l 1
 266 0 l 1
 266 105 l 1
 297 105 l 1
EndSplineSet
Refer: 35 -1 N -1 0 0 1 277 0 2
EndChar
StartChar: arAlef.isol
Encoding: 65536 -1 0
Width: 275
VWidth: 0
Flags: HW
AnchorPoint: "arHamzaBelow" 136 -29 basechar 0
AnchorPoint: "arAltDotBelow" 136 -29 basechar 0
AnchorPoint: "arMarkAbove" 136 664 basechar 0
AnchorPoint: "arHamzaAbove" 136 664 basechar 0
AnchorPoint: "arDotAbove" 136 664 basechar 0
LayerCount: 2
Fore
SplineSet
85.5 624 m 1
 190.5 624 l 1
 190.5 109.8203125 l 6
 190.5 46.912109375 150.790039062 0.5 85 0.5 c 5
 85.5 624 l 1
EndSplineSet
EndChar
StartChar: arAlmAlef.isol.alt2
Encoding: 65558 -1 32
Width: 592
VWidth: 0
Flags: HW
LayerCount: 2
Fore
SplineSet
382 660 m 1
 487 660 l 1
 487 104 l 2
 487 44 438 0 381 0 c 2
 105 0 l 1
 105 105 l 1
 401 105 l 17
 402 105 382 84 382 84 c 1
 382 660 l 1
199.5 564 m 1
 304.5 564 l 1
 304.5 59 l 1
 199.5 59 l 1
 199.5 564 l 1
EndSplineSet
EndChar
StartChar: arBeh.isol
Encoding: 65540 -1 4
Width: 877
VWidth: 0
GlyphClass: 2
Flags: HW
AnchorPoint: "arMarkAbove" 437 394 basechar 0
AnchorPoint: "arDotAbove" 437 394 basechar 0
AnchorPoint: "arMarkBelow" 457 -109 basechar 0
AnchorPoint: "arDotBelow" 457 -109 basechar 0
LayerCount: 3
Fore
SplineSet
667 300 m 1
 772 300 l 1
 772 105 l 2
 772 47 725 0 668 0 c 2
 276 0 l 2
 189 0 105 66 105 160 c 2
 105 300 l 1
 210 300 l 1
 210 160 l 2
 210 134 237 105 276 105 c 2
 687 105 l 1
 667 86 l 1
 667 300 l 1
EndSplineSet
EndChar
StartChar: arDal.isol
Encoding: 65538 -1 2
Width: 578
VWidth: 0
Flags: HW
AnchorPoint: "arMarkBelow" 244 -72 basechar 0
AnchorPoint: "arDotBelow" 244 -72 basechar 0
AnchorPoint: "arMarkAbove" 248 480 basechar 0
AnchorPoint: "arDotAbove" 248 480 basechar 0
LayerCount: 3
Fore
SplineSet
212 283 m 1
 258 377 l 1
 326 343 474 266 474 104 c 0
 474 46 428 0 369 -0 c 2
 105 -0 l 1
 105 105 l 1
 388 105 l 1
 368 84 l 1
 372 195 284 247 212 283 c 1
EndSplineSet
EndChar
StartChar: arFeh.fina
Encoding: 65574 -1 51
Width: 930
VWidth: 0
Flags: HW
AnchorPoint: "arMarkBelow" 469 -299 basechar 0
AnchorPoint: "arDotBelow" 469 -299 basechar 0
AnchorPoint: "arMarkAbove" 659 478.557 basechar 0
AnchorPoint: "arDotAbove" 659 478.557 basechar 0
LayerCount: 2
Fore
SplineSet
950 105 m 1
 950 0 l 1
 751 0 l 2
 666.993164062 0 563 -14 500 90 c 0
 442 186 492 297 561 342 c 0
 638 391 768 386 829 290 c 0
 846 262 855 228 855 191 c 2
 855 -93 l 2
 855 -148 811 -200 748 -200 c 2
 256 -200 l 2
 175 -200 105 -142 105 -53 c 2
 105 99 l 1
 209 99 l 1
 209 -53 l 2
 209 -80 223 -94 256 -94 c 2
 770 -94 l 17
 751 -114 l 1
 751 191 l 2
 751 221 735 243 712 256 c 0
 684 272 646 272 617 254 c 0
 588 235 568 180 590 144 c 0
 617 99 645.995117188 105 751 105 c 2
 950 105 l 1
EndSplineSet
EndChar
StartChar: arFeh.init
Encoding: 65577 -1 54
Width: 564
VWidth: 0
Flags: HW
AnchorPoint: "arMarkAbove" 263 619 basechar 0
AnchorPoint: "arDotAbove" 263 619 basechar 0
AnchorPoint: "arMarkBelow" 273 -139 basechar 0
AnchorPoint: "arDotBelow" 273 -139 basechar 0
LayerCount: 2
Fore
SplineSet
0 105 m 9
 374 105 l 17
 354 86 l 1
 354 331 l 2
 354 368 328 396 295 405 c 0
 272 411 245 409 221 394 c 0
 192 375 172 320 194 284 c 0
 221 239 243 228 408 236 c 1
 408 160 l 1
 300 156 167 126 104 230 c 0
 46 326 96 437 165 482 c 0
 242 531 372 526 433 430 c 0
 450 402 460 368 460 331 c 2
 460 107 l 2
 460 52 415 0 352 0 c 2
 0 0 l 17
 0 105 l 9
EndSplineSet
EndChar
StartChar: arFeh.isol
Encoding: 65552 -1 25
Width: 961
VWidth: 0
Flags: HW
AnchorPoint: "arNuqtaBelow" 469 -299 basechar 0
AnchorPoint: "arNuqtaAbove" 659 478.557 basechar 0
LayerCount: 2
Fore
SplineSet
804 19.431640625 m 1
 696.455078125 15.529296875 563.1953125 -15.0888671875 500.567382812 88.8466796875 c 0
 442.55859375 184.561523438 491.663085938 295.810546875 561.013671875 341.100585938 c 0
 637.786132812 390.149414062 768.3984375 384.708007812 829.038085938 288.681640625 c 0
 846.450195312 261.108398438 856 227.264648438 856 190 c 2
 856 -93 l 2
 856 -147.627929688 811.833984375 -199.5 748.5 -199.5 c 2
 256.5 -199.5 l 2
 175.616210938 -199.5 105 -141.760742188 105 -53 c 2
 105 99 l 1
 210 99 l 1
 210 -53 l 2
 210 -80.2392578125 223.383789062 -94.5 256.5 -94.5 c 2
 770.5 -94.5 l 17
 751 -113.995117188 l 1
 751 190 l 2
 751 226.80078125 724.9453125 255.053710938 691.5 264.290039062 c 0
 668.469726562 270.650390625 641.934570312 267.993164062 617.990234375 252.901367188 c 0
 588.8046875 233.53125 568.55078125 179.2578125 590.432617188 143.153320312 c 0
 617.609375 98.0517578125 638.787109375 87.3798828125 804 95.4375 c 1
 804 19.431640625 l 1
EndSplineSet
EndChar
StartChar: arGaf.isol
Encoding: 65612 -1 153
Width: 858
VWidth: 0
Flags: HW
LayerCount: 2
Fore
SplineSet
205 105 m 1
 292 0 l 1
 190 0 l 1
 103 105 l 1
 205 105 l 1
EndSplineSet
Refer: 61 -1 N 1 0 0 1 190 0 2
EndChar
StartChar: arHah.init
Encoding: 65569 -1 43
Width: 667
VWidth: 0
Flags: HW
AnchorPoint: "arMarkAbove" 188 487 basechar 0
AnchorPoint: "arDotAbove" 188 487 basechar 0
AnchorPoint: "arMarkBelow" 253 -150 basechar 0
AnchorPoint: "arDotBelow" 253 -150 basechar 0
LayerCount: 2
Fore
SplineSet
0 0 m 1
 0 105 l 1
 388 105 l 1
 380 94 l 1
 372 101 362 109 353 118 c 0
 311 157 265 208 228 234 c 0
 182 267 136 278 95 288 c 1
 119 390 l 1
 160 380 224 365 288 320 c 0
 347 278 395 221 434 187 c 0
 486 141 492 144 559 144 c 1
 562 95 l 0
 564 60 545 0 483 0 c 0
 0 0 l 1
EndSplineSet
EndChar
StartChar: arHah.isol
Encoding: 65537 -1 1
Width: 678
VWidth: 0
Flags: HW
LayerCount: 2
Fore
SplineSet
482 -185 m 1
 482 -291 l 1
 241 -291 l 2
 163 -292 105 -233 105 -158 c 2
 105 -33 l 2
 105 39 160 106 245 106 c 2
 382 106 l 1
 378 110 377 110 375 113 c 0
 329 164 296 225 201 261 c 1
 239 359 l 1
 366 311 421 218 453 183 c 0
 501 130 505 136 573 136 c 1
 573 83 l 0
 573 60 556 0 494 0 c 2
 244 0 l 2
 227 0 209 -13 209 -33 c 2
 209 -158 l 2
 209 -175 219 -185 241 -185 c 2
 482 -185 l 1
EndSplineSet
EndChar
StartChar: arHah.isol2
Encoding: 65558 -1 32
Width: 678
VWidth: 0
GlyphClass: 2
Flags: HW
AnchorPoint: "arMarkAbove" 308 457 basechar 0
AnchorPoint: "arDotAbove" 308 457 basechar 0
AnchorPoint: "arMarkBelow" 389 -94 basechar 0
AnchorPoint: "arDotBelow" 388 -94 basechar 0
LayerCount: 3
Fore
SplineSet
105 -158 m 2
 105 -33 l 2
 105 39 160 105 245 105 c 2
 382 105 l 1
 378 109 377 110 375 113 c 0
 329 164 296 225 201 261 c 1
 239 359 l 1
 366 311 421 218 453 183 c 0
 501 130 505 136 573 136 c 1
 573 83 l 0
 573 60 556 0 494 0 c 2
 246 0 l 2
 229 0 211 -13 211 -33 c 2
 211 -267 l 1
 145 -267 105 -221 105 -158 c 2
EndSplineSet
EndChar
StartChar: arHamza.isol
Encoding: 65611 -1 91
Width: 498
VWidth: -36
Flags: HW
AnchorPoint: "arMarkBelow" 200 -90 basechar 0
AnchorPoint: "arDotBelow" 200 -90 basechar 0
AnchorPoint: "arMarkAbove" 290 373 basechar 0
AnchorPoint: "arDotAbove" 290 373 basechar 0
LayerCount: 2
Fore
SplineSet
393.87890625 272.00390625 m 1
 393.87890625 167.00390625 l 1
 298.41796875 167.00390625 l 1
 329.845703125 100.3671875 l 2
 337.208984375 82.5048828125 353.451171875 54.8818359375 333.201171875 27.1318359375 c 0
 314.923828125 2.0859375 283.9453125 0.4677734375 270.325195312 0.4677734375 c 2
 105 0.4677734375 l 1
 105 105.467773438 l 1
 211.349609375 105.467773438 l 1
 180.341796875 171.216796875 l 2
 180.341796875 171.216796875 156.841796875 210.880859375 176.439453125 241.631835938 c 0
 186.802734375 257.891601562 209.103515625 272.00390625 244.05859375 272.00390625 c 2
 393.87890625 272.00390625 l 1
EndSplineSet
EndChar
StartChar: arHamza.kaf
Encoding: 65596 -1 76
Width: 0
VWidth: -36
Flags: HW
AnchorPoint: "arHamzaAbove" 0 0 mark 0
LayerCount: 2
Fore
SplineSet
96.29296875 180.748046875 m 1
 96.29296875 110.748046875 l 1
 32.65234375 110.748046875 l 1
 53.6044921875 66.3232421875 l 2
 58.5126953125 54.4150390625 69.3408203125 36 55.8408203125 17.5 c 0
 43.65625 0.802734375 23.00390625 -0.2763671875 13.923828125 -0.2763671875 c 2
 -96.29296875 -0.2763671875 l 1
 -96.29296875 69.7236328125 l 1
 -25.3935546875 69.7236328125 l 1
 -46.0654296875 113.556640625 l 2
 -46.0654296875 113.556640625 -61.7314453125 139.999023438 -48.6669921875 160.5 c 0
 -41.7578125 171.33984375 -26.890625 180.748046875 -3.5869140625 180.748046875 c 2
 96.29296875 180.748046875 l 1
EndSplineSet
EndChar
StartChar: arHeh.fina2
Encoding: 65622 -1 162
Width: 370
VWidth: 0
Flags: HW
AnchorPoint: "arMarkAbove" 204 281 basechar 0
AnchorPoint: "arHamzaAbove" 204 281 basechar 0
AnchorPoint: "arDotAbove" 204 281 basechar 0
AnchorPoint: "arMarkBelow" 224 -149 basechar 0
AnchorPoint: "arDotBelow" 224 -149 basechar 0
LayerCount: 2
Fore
SplineSet
210 -81 m 1
 105 -81 l 1
 105 1 l 2
 105 61 154 105 211 105 c 2
 370 105 l 1
 370 0 l 1
 191 0 l 17
 190 0 210 21 210 21 c 1
 210 -81 l 1
EndSplineSet
EndChar
StartChar: arHeh.init
Encoding: 65568 -1 42
Width: 773
VWidth: 0
Flags: HW
AnchorPoint: "arMarkBelow" 336 -149 basechar 0
AnchorPoint: "arDotBelow" 336 -149 basechar 0
AnchorPoint: "arMarkAbove" 336 628 basechar 0
AnchorPoint: "arDotAbove" 336 628 basechar 0
LayerCount: 3
Fore
SplineSet
248 396 m 1
 250 500 l 1
 540 496 673 281 669 105 c 0
 668 46 622 0 564 0 c 2
 0 0 l 1
 0 105 l 1
 584 105 l 1
 563 86 l 1
 569 237 477 392 248 396 c 1
323 1 m 1
 321 105 l 1
 349 105 363 122 363 138 c 0
 363 146 359 161 346 181 c 0
 304 245 253 242 238 232 c 0
 231 227 224 220 224 200 c 2
 224 103 l 1
 120 103 l 1
 120 200 l 2
 120 250 142 295 180 320 c 0
 259 372 371 336 434 239 c 0
 455 206 467 173 468 140 c 0
 470 49 390 2 323 1 c 1
EndSplineSet
EndChar
StartChar: arHeh.init2
Encoding: 65621 -1 161
Width: 420
VWidth: 0
Flags: HW
AnchorPoint: "arMarkAbove" 119 491 basechar 0
AnchorPoint: "arDotAbove" 119 491 basechar 0
LayerCount: 2
Fore
SplineSet
283.81640625 -140.900390625 m 1
 332.18359375 -177.099609375 l 1
 265.721679688 -250.114257812 198.868164062 -246.844726562 167.186523438 -222.848632812 c 0
 140.036132812 -202.284179688 124.6640625 -164.583984375 133.927734375 -115.797851562 c 0
 149.286132812 -34.908203125 172.947265625 -1.505859375 236.47265625 66.8134765625 c 1
 283.528320312 29.1875 l 1
 247.052734375 -5.4931640625 228.842773438 -29.48046875 218.073242188 -86.2021484375 c 0
 210.451171875 -126.34375 231.5 -179.595703125 283.81640625 -140.900390625 c 1
210 256 m 1
 315 256 l 1
 315 104 l 2
 315 44 266 0 209 0 c 2
 0 0 l 1
 0 105 l 1
 229 105 l 17
 230 105 210 84 210 84 c 1
 210 256 l 1
EndSplineSet
EndChar
StartChar: arHeh.isol
Encoding: 65548 -1 12
Width: 592
VWidth: 0
Flags: HW
AnchorPoint: "arMarkBelow" 314 -109 basechar 0
AnchorPoint: "arDotBelow" 314 -109 basechar 0
AnchorPoint: "arHamzaAbove" 380 450 basechar 0
AnchorPoint: "arMarkAbove" 380 505 basechar 0
AnchorPoint: "arDotAbove" 380 505 basechar 0
LayerCount: 2
Fore
SplineSet
402 374 m 1
 302 415 l 1
 262 319 218 294 144 224 c 0
 86 169 98 81 147 37 c 0
 172 14 206 0 243 0 c 2
 383 0 l 2
 442 0 487 45 487 105 c 2
 487 364 l 1
 382 364 l 1
 382 86 l 1
 403 105 l 1
 243 105 l 2
 232 105 223 109 218 114 c 0
 208 123 205 133 218 149 c 0
 275 203 336 243 402 374 c 1
EndSplineSet
EndChar
StartChar: arKaf.init
Encoding: 65570 -1 44
Width: 668
VWidth: 0
Flags: HW
AnchorPoint: "arMarkAbove" 309 670 basechar 0
AnchorPoint: "arDotAbove" 89 650 basechar 0
AnchorPoint: "arMarkBelow" 249 -149 basechar 0
AnchorPoint: "arDotBelow" 249 -149 basechar 0
AnchorPoint: "arShartaAbove" 371 678 basechar 0
LayerCount: 3
Fore
SplineSet
0 0 m 1
 0 105 l 1
 473 105 l 1
 465 92 l 1
 179 384 l 2
 133 431 126 519 187 556 c 0
 301 626 504 671 557 672 c 1
 559 568 l 1
 537 567 319 519 229 460 c 1
 230 483 l 9
 535 172 l 2
 598 108 551 0 462 0 c 2
 0 0 l 1
EndSplineSet
EndChar
StartChar: arKaf.isol
Encoding: 65546 -1 10
Width: 725
VWidth: 0
Flags: HW
LayerCount: 2
Fore
SplineSet
515 658 m 1
 620 658 l 1
 620 104 l 2
 620 44 571 0 514 0 c 2
 192 0 l 1
 192 105 l 1
 534 105 l 17
 535 105 515 84 515 84 c 1
 515 658 l 1
207 105 m 1
 294 0 l 1
 192 0 l 1
 105 105 l 1
 207 105 l 1
EndSplineSet
EndChar
StartChar: arLam.init.1
Encoding: 65556 -1 30
Width: 548
VWidth: 0
Flags: HW
AnchorPoint: "arMarkBelow" 391 -99 basechar 0
AnchorPoint: "arDotBelow" 391 -99 basechar 0
AnchorPoint: "arMarkAbove" 391 724 basechar 0
AnchorPoint: "arDotAbove" 391 724 basechar 0
LayerCount: 3
Back
SplineSet
338 660 m 1
 443 660 l 1
 443 104 l 2
 443 44 394 0 337 0 c 2
 105 0 l 1
 105 105 l 1
 357 105 l 17
 358 105 338 84 338 84 c 1
 338 660 l 1
135.6015625 665.295898438 m 1
 236.3984375 694.704101562 l 1
 367.3984375 245.704101562 l 1
 266.6015625 216.295898438 l 1
 135.6015625 665.295898438 l 1
253 263 m 1
 356 263 l 17
 345 200 307 141 216 90 c 1
 133 90 l 1
 201 123 255 161 253 263 c 1
EndSplineSet
Fore
SplineSet
338 624 m 1
 443 624 l 1
 443 104 l 2
 443 44 394 0 337 0 c 2
 105 0 l 1
 105 105 l 1
 357 105 l 17
 358 105 338 84 338 84 c 1
 338 624 l 1
EndSplineSet
EndChar
StartChar: arLam.init
Encoding: 65561 -1 35
Width: 297
VWidth: 0
Flags: HW
AnchorPoint: "arNuqtaBelow" 110 -99 basechar 0
AnchorPoint: "arNuqtaAbove" 140 724 basechar 0
LayerCount: 2
Fore
SplineSet
87 624 m 1
 192 624 l 1
 192 104 l 2
 192 44 143 0 86 0 c 2
 0 0 l 1
 0 105 l 1
 106 105 l 17
 107 105 87 84 87 84 c 1
 87 624 l 1
EndSplineSet
EndChar
StartChar: arMeem.init
Encoding: 65610 -1 90
Width: 577
VWidth: 34
Flags: HW
AnchorPoint: "arMarkBelow" 174 -109 basechar 0
AnchorPoint: "arDotBelow" 174 -109 basechar 0
AnchorPoint: "arMarkAbove" 252 449 basechar 0
AnchorPoint: "arDotAbove" 252 449 basechar 0
LayerCount: 3
Fore
SplineSet
100 84 m 1
 100 84 120 105 119 105 c 9
 0 105 l 1
 0 0 l 1
 99 0 l 2
 156 0 205 44 205 104 c 2
 205 238 l 2
 205 256 211 266 218 273 c 0
 237 291 281 294 309 265 c 0
 356 216 367 180 367 162 c 0
 367 137 339 105 265 105 c 2
 200 105 l 1
 200 0 l 1
 265 0 l 2
 357 0 473 47 472 163 c 0
 472 220 442 277 385 337 c 0
 319 406 209 410 145 348 c 0
 117 321 100 282 100 238 c 2
 100 238 100 135 100 84 c 1
EndSplineSet
EndChar
StartChar: arNoon.fina
Encoding: 65564 -1 38
Width: 675
VWidth: 0
Flags: HW
AnchorPoint: "arNuqtaBelow" 299 -297 basechar 0
AnchorPoint: "arNuqtaAbove" 238 302 basechar 0
LayerCount: 2
Fore
SplineSet
675.5 105.5 m 1
 675.5 0.5 l 1
 554.5 0.5 l 1
 554.5 105.5 l 1
 675.5 105.5 l 1
EndSplineSet
Refer: 24 -1 N 1 0 0 1 0 0 2
EndChar
StartChar: arNoon.isol
Encoding: 65551 -1 24
Width: 679
VWidth: 0
Flags: HW
AnchorPoint: "arDotBelow" 409 -297 basechar 0
AnchorPoint: "arDotAbove" 348 302 basechar 0
LayerCount: 2
Fore
SplineSet
469 188 m 1
 574 188 l 1
 574 -83 l 2
 574 -139.950195312 530.489257812 -187.5 470.5 -187.5 c 2
 331.5 -187.5 l 2
 203.159179688 -187.5 105 -118.169921875 105 -3 c 2
 105 187 l 1
 210 187 l 1
 210 -3 l 2
 210 -27.830078125 236.840820312 -82.5 331.5 -82.5 c 2
 488.840820312 -82.5 l 1
 469 -102.233398438 l 1
 469 188 l 1
EndSplineSet
EndChar
StartChar: arQaf.fina
Encoding: 65576 -1 53
Width: 955
VWidth: 0
Flags: HW
AnchorPoint: "arNuqtaBelow" 374 -299 basechar 0
AnchorPoint: "arNuqtaAbove" 499 449.557 basechar 0
LayerCount: 2
Fore
SplineSet
955 106 m 1
 955 0 l 1
 681 0 l 2
 597 -1 493 -14 430 90 c 0
 372 186 422 297 491 342 c 0
 568 391 698 386 759 290 c 0
 776 262 785 228 785 191 c 2
 785 -93 l 2
 785 -148 741 -200 678 -200 c 2
 256 -200 l 2
 175 -200 105 -142 105 -53 c 2
 105 189 l 1
 209 189 l 1
 209 -53 l 2
 209 -80 223 -94 256 -94 c 2
 700 -94 l 17
 681 -114 l 1
 681 191 l 2
 681 221 665 243 642 256 c 0
 614 272 576 272 547 254 c 0
 518 235 498 180 520 144 c 0
 547 99 576 104 681 105 c 2
 955 106 l 1
EndSplineSet
EndChar
StartChar: arQaf.isol
Encoding: 65575 -1 52
Width: 891
VWidth: 0
Flags: HW
LayerCount: 2
Fore
SplineSet
734 20.431640625 m 1
 626.455078125 16.529296875 493.1953125 -14.0888671875 430.567382812 89.8466796875 c 0
 372.55859375 185.561523438 421.663085938 296.810546875 491.013671875 342.100585938 c 0
 567.786132812 391.149414062 698.3984375 385.708007812 759.038085938 289.681640625 c 0
 776.450195312 262.108398438 786 228.264648438 786 191 c 2
 786 -93 l 2
 786 -147.627929688 741.833984375 -199.5 678.5 -199.5 c 2
 256.5 -199.5 l 2
 175.616210938 -199.5 105 -141.760742188 105 -53 c 2
 105 189 l 1
 210 189 l 1
 210 -53 l 2
 210 -80.2392578125 223.383789062 -94.5 256.5 -94.5 c 2
 700.5 -94.5 l 17
 681 -113.995117188 l 1
 681 191 l 2
 681 227.80078125 654.9453125 256.053710938 621.5 265.290039062 c 0
 598.469726562 271.650390625 571.934570312 268.993164062 547.990234375 253.901367188 c 0
 518.8046875 234.53125 498.55078125 180.2578125 520.432617188 144.153320312 c 0
 547.609375 99.0517578125 568.787109375 88.3798828125 734 96.4375 c 1
 734 20.431640625 l 1
EndSplineSet
EndChar
StartChar: arReh.fina
Encoding: 65560 -1 34
Width: 396
VWidth: 0
Flags: HW
LayerCount: 2
Fore
SplineSet
416 105.5 m 1
 416 0.5 l 1
 271 0.5 l 1
 271 105.5 l 1
 416 105.5 l 1
EndSplineSet
Refer: 3 -1 N 1 0 0 1 0 0 2
Colour: ff00ff
EndChar
StartChar: arReh.isol
Encoding: 65539 -1 3
Width: 398
VWidth: 0
Flags: HW
AnchorPoint: "arMarkBelow" 138 -330 basechar 0
AnchorPoint: "arDotBelow" 138 -330 basechar 0
AnchorPoint: "arMarkAbove" 236 351 basechar 0
AnchorPoint: "arDotAbove" 236 351 basechar 0
LayerCount: 2
Fore
SplineSet
188 187 m 1
 294 187 l 1
 294 -1 l 2
 294 -108 214 -200 102 -200 c 2
 0 -200 l 1
 0 -96 l 1
 102 -96 l 2
 152 -96 188 -58 188 -1 c 2
 188 187 l 1
EndSplineSet
EndChar
StartChar: arSad.above
Encoding: 65608 -1 88
Width: 0
VWidth: 34
GlyphClass: 4
Flags: HW
AnchorPoint: "arMarkAboveDot" 0 240 basemark 0
AnchorPoint: "arHamzaAbove" 0 0 mark 0
LayerCount: 3
Fore
SplineSet
-81 -0 m 1
 -149 -0 l 1
 -149 52 l 1
 -81 52 l 1
 -81 -0 l 1
EndSplineSet
Refer: 87 -1 N 0.5 0 0 0.5 23 -0 2
Layer: 2
SplineSet
-81 -0 m 1
 -149 -0 l 1
 -149 52 l 1
 -81 52 l 1
 -81 -0 l 1
EndSplineSet
Refer: 87 -1 N 0.5 0 0 0.5 23 -0 2
EndChar
StartChar: arSad.head
Encoding: 65607 -1 87
Width: 0
VWidth: 0
Flags: HW
LayerCount: 2
Fore
SplineSet
-245.267578125 93.5 m 5
 -152.560546875 222.06640625 -30.7802734375 431.7109375 141.530273438 367.837890625 c 4
 217.881835938 335.76953125 249.485351562 263.7734375 251.712890625 172.422851562 c 4
 253.705078125 105.6875 l 6
 255.783203125 45.4462890625 205.932617188 -0.5 148.232421875 -0.5 c 6
 -253.767578125 -0.5 l 5
 -253.767578125 104.5 l 5
 169.232421875 104.5 l 5
 169.412109375 104.5 147.692382812 84.5 147.692382812 84.5 c 5
 146.751953125 169.577148438 l 6
 145.95703125 241.459960938 128.061523438 259.053710938 102.947265625 270.150390625 c 4
 52.3203125 287.890625 -21.767578125 237 -148.767578125 44 c 5
 -245.267578125 93.5 l 5
EndSplineSet
EndChar
StartChar: arSad.init
Encoding: 65571 -1 45
Width: 751
VWidth: 0
GlyphClass: 2
Flags: HW
AnchorPoint: "arMarkAbove" 277 427 basechar 0
AnchorPoint: "arDotAbove" 277 427 basechar 0
AnchorPoint: "arMarkBelow" 365 -149 basechar 0
AnchorPoint: "arDotBelow" 365 -149 basechar 0
LayerCount: 3
Fore
SplineSet
0 0 m 25
 0 105 l 25
 147 105 l 25
 147 0 l 25
 0 0 l 25
86 277 m 1
 190 277 l 1
 190 98 l 1
 86 98 l 1
 86 277 l 1
EndSplineSet
Refer: 87 -1 N 1 0 0 1 393 0 2
EndChar
StartChar: arSad.isol
Encoding: 65542 -1 6
Width: 1139
VWidth: 0
Flags: HW
AnchorPoint: "arMarkBelow" 329 -311 basechar 0
AnchorPoint: "arDotBelow" 329 -311 basechar 0
AnchorPoint: "arMarkAbove" 663 447 basechar 0
AnchorPoint: "arDotAbove" 663 447 basechar 0
LayerCount: 3
Fore
SplineSet
474 277 m 1
 579 277 l 1
 579 -97 l 2
 579 -156 532 -202 474 -202 c 2
 207 -202 l 2
 145 -202 105 -146 105 -93 c 2
 105 185 l 1
 210 185 l 1
 210 -116 l 17
 190 -97 l 1
 494 -97 l 1
 474 -116 l 9
 474 -116 l 1
 474 277 l 1
EndSplineSet
Refer: 87 -1 N 1 0 0 1 781 0 2
EndChar
StartChar: arSad.mark
Encoding: 65608 -1 88
Width: 0
VWidth: 34
Flags: HW
LayerCount: 2
Fore
SplineSet
-81.4423828125 -0.0693359375 m 1
 -149.442382812 -0.0693359375 l 5
 -149.442382812 51.9306640625 l 5
 -81.4423828125 51.9306640625 l 1
 -81.4423828125 -0.0693359375 l 1
EndSplineSet
Refer: 87 -1 N 0.5 0 0 0.5 22.5582 -0.0692968 2
EndChar
StartChar: arSeen.init
Encoding: 65562 -1 36
Width: 754
VWidth: 0
Flags: HW
AnchorPoint: "arDotBelow" 405 -149 basechar 0
AnchorPoint: "arDotAbove" 405 513 basechar 0
LayerCount: 2
Fore
SplineSet
180 376 m 1
 285 376 l 1
 285 104 l 2
 285 44 236 0 179 0 c 2
 0 0 l 1
 0 105 l 1
 199 105 l 17
 200 105 180 84 180 84 c 1
 180 376 l 1
362 376 m 1
 467 376 l 1
 467 104 l 2
 467 44 418 0 361 0 c 2
 279 0 l 1
 279 105 l 1
 381 105 l 17
 382 105 362 84 362 84 c 1
 362 376 l 1
544 376 m 1
 649 376 l 1
 649 104 l 2
 649 44 600 0 543 0 c 2
 461 0 l 1
 461 105 l 1
 563 105 l 17
 564 105 544 84 544 84 c 1
 544 376 l 1
EndSplineSet
EndChar
StartChar: arSeen.isol
Encoding: 65541 -1 5
Width: 1052
VWidth: 0
Flags: HW
AnchorPoint: "arMarkBelow" 329 -311 basechar 0
AnchorPoint: "arDotBelow" 329 -311 basechar 0
AnchorPoint: "arMarkAbove" 698 512 basechar 0
AnchorPoint: "arDotAbove" 698 512 basechar 0
LayerCount: 2
Fore
SplineSet
658 376 m 1
 763 376 l 1
 763 104 l 2
 763 44 714 0 657 0 c 2
 575 0 l 1
 575 105 l 1
 677 105 l 17
 678 105 658 84 658 84 c 1
 658 376 l 1
842 376 m 1
 947 376 l 1
 947 104 l 2
 947 44 898 0 841 0 c 2
 759 0 l 1
 759 105 l 1
 861 105 l 17
 862 105 842 84 842 84 c 1
 842 376 l 1
474 378 m 1
 579 378 l 1
 579 -97 l 2
 579 -156 532 -202 474 -202 c 2
 207 -202 l 2
 145 -202 105 -146 105 -93 c 2
 105 185 l 1
 210 185 l 1
 210 -116 l 17
 190 -97 l 1
 494 -97 l 1
 474 -116 l 9
 474 -116 l 1
 474 378 l 1
EndSplineSet
EndChar
StartChar: arSharta.kaf
Encoding: 65614 -1 154
Width: 0
VWidth: 0
Flags: HW
AnchorPoint: "arMarkAbove" -30 110 basechar 0
AnchorPoint: "arShartaAbove" 0 0 mark 0
LayerCount: 3
Fore
SplineSet
-145 -59 m 1
 -182 0 l 1
 -73 67 132 113 180 114 c 1
 182 45 l 1
 156 44 -56 -4 -145 -59 c 1
EndSplineSet
EndChar
StartChar: arTah.isol
Encoding: 65543 -1 7
Width: 779
VWidth: 0
Flags: HW
AnchorPoint: "arMarkBelow" 409 -110 basechar 0
AnchorPoint: "arDotBelow" 409 -110 basechar 0
AnchorPoint: "arMarkAbove" 446 485 basechar 0
AnchorPoint: "arDotAbove" 446 485 basechar 0
LayerCount: 3
Fore
SplineSet
105 0 m 25
 105 105 l 25
 175 105 l 25
 175 0 l 25
 105 0 l 25
184 624 m 1
 290 624 l 1
 290 88 l 1
 184 88 l 1
 184 624 l 1
EndSplineSet
Refer: 87 -1 N 1 0 0 1 421 0 2
EndChar
StartChar: arWaw.fina
Encoding: 65559 -1 33
Width: 465
VWidth: 0
Flags: HW
LayerCount: 3
Fore
SplineSet
485 105 m 1
 485 -0 l 1
 340 -0 l 1
 340 105 l 1
 485 105 l 1
EndSplineSet
Refer: 13 -1 N 1 0 0 1 0 0 2
Colour: ff00ff
EndChar
StartChar: arWaw.isol
Encoding: 65549 -1 13
Width: 493
VWidth: 0
Flags: HW
AnchorPoint: "arMarkBelow" 169 -309 basechar 0
AnchorPoint: "arDotBelow" 169 -309 basechar 0
AnchorPoint: "arHamzaAbove" 233 484 basechar 0
AnchorPoint: "arMarkAbove" 233 484 basechar 0
AnchorPoint: "arDotAbove" 233 484 basechar 0
LayerCount: 2
Fore
SplineSet
332 -0 m 1
 176 -0 l 2
 86 0 15 73 20 159 c 0
 32 296 146 375 244 376 c 0
 317 377 387 326 388 233 c 2
 388 -1 l 2
 388 -99 315 -200 198 -200 c 2
 5 -200 l 1
 5 -94 l 1
 198 -94 l 2
 247 -94 284 -50 284 -0 c 2
 284 213 l 2
 284 245 272 271 245 271 c 0
 199 271 132 228 124 151 c 0
 123 131 144 105 176 105 c 2
 332 105 l 1
 332 -0 l 1
EndSplineSet
EndChar
StartChar: arYeh.fina.alt1
Encoding: 65565 -1 39
Width: 674
VWidth: 0
Flags: HW
AnchorPoint: "arMarkAbove" 307 250 basechar 0
AnchorPoint: "arDotAbove" 307 250 basechar 0
AnchorPoint: "arHamzaAbove" 307 250 basechar 0
AnchorPoint: "arMarkBelow" 379 -276 basechar 0
AnchorPoint: "arDotBelow" 379 -276 basechar 0
LayerCount: 3
Fore
SplineSet
469 58 m 1
 574 58 l 1
 574 -83 l 2
 574 -140 530 -188 470 -188 c 2
 332 -188 l 2
 204 -188 105 -118 105 -3 c 2
 105 187 l 1
 210 187 l 1
 210 -3 l 2
 210 -28 237 -82 332 -82 c 2
 489 -82 l 1
 469 -102 l 1
 469 58 l 1
694 105 m 1
 694 0 l 1
 422 0 l 1
 422 105 l 1
 694 105 l 1
EndSplineSet
EndChar
StartChar: arYeh.fina.alt2
Encoding: 65566 -1 40
Width: 869
VWidth: 0
Flags: HW
AnchorPoint: "arMarkAbove" 307 280 basechar 0
AnchorPoint: "arDotAbove" 307 280 basechar 0
AnchorPoint: "arHamzaAbove" 307 280 basechar 0
AnchorPoint: "arMarkBelow" 379 -246 basechar 0
AnchorPoint: "arDotBelow" 379 -246 basechar 0
LayerCount: 2
Fore
SplineSet
889 105 m 1
 889 0 l 1
 758 0 l 2
 705 0 662 44 659 97 c 2
 655 179 l 2
 654 200 643 216 602 193 c 0
 565 173 510 137 484 103 c 1
 487 140 l 1
 616 -8 l 2
 675 -76 613 -162 538 -162 c 2
 273 -162 l 2
 168 -163 105 -76 105 14 c 2
 105 217 l 1
 210 217 l 1
 210 14 l 2
 210 -31 236 -58 272 -58 c 2
 539 -58 l 1
 532 -72 l 1
 426 50 l 2
 387 94 384 156 428 196 c 0
 465 232 510 262 551 285 c 0
 621 324 706 311 743 244 c 0
 765 204 762 143 765 86 c 1
 744 105 l 1
 889 105 l 1
EndSplineSet
EndChar
StartChar: arYeh.fina2
Encoding: 65573 -1 47
Width: 763
VWidth: 0
Flags: HW
AnchorPoint: "arDotAbove" 484 335 basechar 0
AnchorPoint: "arDotBelow" 544 -370 basechar 0
AnchorPoint: "arHamzaAbove" 484 335 basechar 0
LayerCount: 2
Fore
SplineSet
763.483398438 -170.5 m 1
 763.483398438 -275.5 l 1
 325.483398438 -275.5 l 2
 210.721679688 -275.5 131.045898438 -223.548828125 110.2109375 -145.247070312 c 0
 87.37109375 -59.40625 141.52734375 32.2587890625 235.140625 56.7763671875 c 0
 327.892578125 81.228515625 292.016601562 84.6787109375 325.189453125 141.546875 c 0
 354.5078125 191.333007812 403.775390625 232.635742188 474.483398438 233.325195312 c 0
 532.905273438 233.89453125 589.78515625 202.823242188 620.008789062 145.32421875 c 0
 637.47265625 111.739257812 649.625 105.5 689.483398438 105.5 c 10
 763.483398438 105.5 l 1
 763.483398438 0.5 l 1
 689.483398438 0.5 l 18
 621.340820312 0.5 561.494140625 30.2607421875 526.958007812 96.67578125 c 0
 515.110351562 119.215820312 494.227539062 130.21484375 472.483398438 128.498046875 c 0
 445.708007812 126.384765625 429.319335938 111.44921875 415.77734375 88.453125 c 0
 406.956054688 73.33203125 389.033203125 -11.2392578125 261.8671875 -44.765625 c 0
 220.754882812 -55.533203125 204.750976562 -92.205078125 211.680664062 -118.248046875 c 0
 216.790039062 -137.44921875 238.973632812 -170.5 325.483398438 -170.5 c 2
 763.483398438 -170.5 l 1
EndSplineSet
EndChar
StartChar: arYeh.isol
Encoding: 65550 -1 14
Width: 740
VWidth: 0
Flags: HW
AnchorPoint: "arMarkAbove" 307 202 basechar 0
AnchorPoint: "arHamzaAbove" 307 202 basechar 0
AnchorPoint: "arDotAbove" 307 202 basechar 0
AnchorPoint: "arMarkBelow" 379 -324 basechar 0
AnchorPoint: "arDotBelow" 379 -324 basechar 0
LayerCount: 2
Fore
SplineSet
635.5 144.5 m 1
 635.5 39.5 l 1
 487.333007812 39.5 l 1
 497 52.5 l 1
 612.119140625 -86.7373046875 l 2
 667.897460938 -154.201171875 602.165039062 -234.5 528.5 -234.5 c 2
 298.5 -234.5 l 2
 220.54296875 -234.5 105 -187.965820312 105 -57 c 2
 105 139 l 1
 210 139 l 1
 210 -57 l 2
 210 -108.034179688 251.45703125 -129.5 308.5 -129.5 c 2
 531.625 -129.5 l 1
 522.625 -143.125 l 1
 420.036132812 -19.4501953125 l 2
 360.969726562 51.7568359375 405.662109375 144.5 497.5 144.5 c 2
 635.5 144.5 l 1
EndSplineSet
EndChar
StartChar: arYeh.isol2
Encoding: 65553 -1 26
Width: 1056
VWidth: 0
Flags: HW
AnchorPoint: "arMarkAbove" 484 408 basechar 0
AnchorPoint: "arHamzaAbove" 484 408 basechar 0
AnchorPoint: "arDotAbove" 484 408 basechar 0
AnchorPoint: "arMarkBelow" 544 -297 basechar 0
AnchorPoint: "arDotBelow" 544 -297 basechar 0
LayerCount: 2
Fore
SplineSet
636.419921875 264.426757812 m 1
 580.474609375 175.573242188 l 1
 530.244140625 207.19921875 460.583984375 230.032226562 413.37890625 162.78125 c 0
 408.349609375 155.65625 388.559570312 65.64453125 261.831054688 32.234375 c 0
 220.59765625 21.435546875 204.870117188 -14.9453125 211.640625 -40.5107421875 c 0
 216.649414062 -59.423828125 238.716796875 -92.5 325.447265625 -92.5 c 0
 951.447265625 -92.5 l 1
 951.447265625 -197.5 l 1
 325.447265625 -197.5 l 0
 210.67578125 -197.5 130.885742188 -145.723632812 110.139648438 -67.392578125 c 0
 87.451171875 18.2783203125 141.80859375 109.341796875 235.10546875 133.776367188 c 0
 328.293945312 158.34375 284.553710938 162.35546875 327.516601562 223.21875 c 0
 426.311523438 363.967773438 578.650390625 300.80078125 636.419921875 264.426757812 c 1
EndSplineSet
EndChar
StartChar: bracketleft.ar
Encoding: 91 -1 50
Width: 404
VWidth: 0
Flags: HW
LayerCount: 3
Fore
SplineSet
348.5 768.5 m 1
 348.5 663.5 l 1
 260 663.5 l 1
 260 -183.5 l 1
 349.5 -183.5 l 1
 349.5 -288.5 l 1
 155 -288.5 l 1
 155 768.5 l 1
 348.5 768.5 l 1
EndSplineSet
EndChar
StartChar: extender
Encoding: 65623 -1 174
Width: 0
VWidth: 34
GlyphClass: 2
Flags: HW
LayerCount: 3
Fore
SplineSet
15 105 m 1
 15 0 l 1
 -15 0 l 1
 -15 105 l 1
 15 105 l 1
EndSplineSet
EndChar
StartChar: parenleft.ar
Encoding: 40 -1 49
Width: 467
VWidth: 0
Flags: HW
LayerCount: 2
Fore
SplineSet
320.173828125 796.1640625 m 1
 410.025390625 741.8359375 l 1
 211.03125 412.729492188 204.046875 89.9130859375 412.291015625 -262.279296875 c 1
 321.908203125 -315.720703125 l 1
 96.1533203125 66.0869140625 103.16796875 437.270507812 320.173828125 796.1640625 c 1
EndSplineSet
EndChar
StartChar: u0644_u0627.isol.alt1
Encoding: 65539 -1 31
Width: 1000
VWidth: 0
Flags: HW
LayerCount: 2
Fore
SplineSet
568 660 m 1
 673 660 l 1
 673 104 l 2
 673 44 624 0 567 0 c 2
 379 0 l 1
 379 105 l 1
 587 105 l 17
 588 105 568 84 568 84 c 1
 568 660 l 1
385.5 658 m 1
 490.5 658 l 1
 490.5 157 l 1
 385.5 157 l 1
 385.5 658 l 1
EndSplineSet
EndChar
StartChar: u0644_u0627.isol.alt2
Encoding: 65540 -1 32
Width: 1000
VWidth: 0
Flags: HW
LayerCount: 2
Fore
SplineSet
613 660 m 1
 718 660 l 1
 718 104 l 2
 718 44 669 0 612 0 c 2
 336 0 l 1
 336 105 l 1
 632 105 l 17
 633 105 613 84 613 84 c 1
 613 660 l 1
430.5 564 m 1
 535.5 564 l 1
 535.5 59 l 1
 430.5 59 l 1
 430.5 564 l 1
EndSplineSet
EndChar
StartChar: u0644_u0627.isol
Encoding: 65538 -1 30
Width: 1000
VWidth: 0
Flags: HW
LayerCount: 2
Fore
SplineSet
590 660 m 1
 695 660 l 1
 695 104 l 2
 695 44 646 0 589 0 c 2
 357 0 l 1
 357 105 l 1
 609 105 l 17
 610 105 590 84 590 84 c 1
 590 660 l 1
387.601257347 665.295689783 m 1
 488.398742653 694.704310217 l 1
 619.398742653 245.704310217 l 1
 518.601257347 216.295689783 l 1
 387.601257347 665.295689783 l 1
505 263 m 1
 608 263 l 17
 597 200 559 141 468 90 c 1
 385 90 l 1
 453 123 507 161 505 263 c 1
EndSplineSet
EndChar
StartChar: uni062D.init
Encoding: 65554 -1 43
Width: 1000
VWidth: 0
Flags: HW
LayerCount: 2
Fore
SplineSet
245 0.5 m 1
 245 105.5 l 1
 632.849609375 105.5 l 1
 624.837890625 94.330078125 l 1
 616.345315351 101.476568485 607.439249011 109.535708142 598.283569336 118.133615244 c 0
 556.379925389 157.484449992 509.247624061 208.120861226 472.597655164 234.198723711 c 0
 426.703883116 266.741580253 380.70100581 277.960741904 339.55980054 287.995182214 c 1
 364.44019946 390.004817786 l 1
 405.276946093 380.04463568 469.338145823 365.228617408 533.367510809 319.825976781 c 0
 592.786691255 277.546944541 640.05408492 221.5497625 678.710767514 187.388042998 c 0
 730.996483446 141.439989604 737.153070202 143.5 803.883758179 143.5 c 1
 807.366581741 94.7404701237 l 0
 809.831749052 60.2281277641 789.929160495 0.5 728 0.5 c 0
 245 0.5 l 1
EndSplineSet
EndChar
StartChar: uni0631.fina
Encoding: 65542 -1 34
Width: 501
VWidth: 0
Flags: HW
LayerCount: 2
Fore
SplineSet
501 105.5 m 1
 501 0.5 l 1
 376 0.5 l 1
 376 105.5 l 1
 501 105.5 l 1
EndSplineSet
Refer: 3 1585 N 1 0 0 1 0 0 2
EndChar
StartChar: uni0633.init
Encoding: 65544 -1 36
Width: 1000
VWidth: 0
Flags: HW
LayerCount: 2
Fore
SplineSet
381 376 m 1
 486 376 l 1
 486 104 l 2
 486 44 437 0 380 0 c 2
 201 0 l 1
 201 105 l 1
 400 105 l 17
 401 105 381 84 381 84 c 1
 381 376 l 1
563 376 m 1
 668 376 l 1
 668 104 l 2
 668 44 619 0 562 0 c 2
 480 0 l 1
 480 105 l 1
 582 105 l 17
 583 105 563 84 563 84 c 1
 563 376 l 1
745 376 m 1
 850 376 l 1
 850 104 l 2
 850 44 801 0 744 0 c 2
 662 0 l 1
 662 105 l 1
 764 105 l 17
 765 105 745 84 745 84 c 1
 745 376 l 1
EndSplineSet
EndChar
StartChar: uni0635.init
Encoding: 65556 -1 45
Width: 751
VWidth: 0
Flags: HW
LayerCount: 2
Fore
SplineSet
147.5 93.5 m 1
 240.20703125 222.06640625 361.987304688 431.7109375 534.297851562 367.837890625 c 0
 610.649414062 335.76953125 642.252929688 263.7734375 644.48046875 172.422851562 c 0
 646.47265625 105.6875 l 2
 648.55078125 45.4462890625 598.700195312 -0.5 541 -0.5 c 2
 0 -0.5 l 1
 0 104.5 l 1
 562 104.5 l 1
 562.1796875 104.5 540.459960938 84.5 540.459960938 84.5 c 1
 539.51953125 169.577148438 l 2
 538.724609375 241.459960938 520.829101562 259.053710938 495.71484375 270.150390625 c 0
 445.087890625 287.890625 371 237 244 44 c 1
 147.5 93.5 l 1
85.5 277 m 1
 190.5 277 l 1
 190.5 98 l 1
 85.5 98 l 1
 85.5 277 l 1
EndSplineSet
EndChar
StartChar: uni0639.init
Encoding: 65549 -1 41
Width: 1000
VWidth: 0
Flags: HW
LayerCount: 2
Fore
SplineSet
266 0.5 m 1
 266 105.5 l 1
 734 105.5 l 1
 734 0.5 l 1
 266 0.5 l 1
699.102063322 357.280987296 m 1
 668.897936678 256.719012704 l 1
 539.897636993 295.464685755 473.832026912 275.743927972 460.201508895 261.694416971 c 0
 453.098684956 254.373256986 437.42705511 204.594596143 543.547656394 101.689770656 c 1
 470.452343606 26.3102293438 l 1
 365.575133074 128.009342587 303.5677439 251.03781034 384.840064185 334.808387258 c 0
 448.696582275 400.627811898 563.680043533 397.955445536 699.102063322 357.280987296 c 1
EndSplineSet
EndChar
StartChar: uni0643.init
Encoding: 65555 -1 44
Width: 1000
VWidth: 0
Flags: HW
LayerCount: 2
Fore
SplineSet
221 0.5 m 1
 221 105.5 l 1
 693.75 105.5 l 1
 686.25 92.25 l 1
 400.485313451 384.272649249 l 2
 354.276367188 431.493164062 347.074257664 519.375444207 408.363331869 556.251444199 c 0
 522.445600534 626.036357142 724.444525952 671.044698808 777.581599029 672.480835918 c 1
 780.418401403 567.519148097 l 1
 758.782878145 566.682381403 540.25 518.5 450.25 459.5 c 1
 451 483 l 9
 755.514529383 171.727511284 l 2
 818.431640625 107.4140625 771.989118033 0.5 683 0.5 c 2
 221 0.5 l 1
EndSplineSet
EndChar
StartChar: uni0643_uni0627.isol
Encoding: 65557 -1 46
Width: 1000
VWidth: 0
Flags: HW
LayerCount: 2
Fore
SplineSet
322.141708158 389 m 2
 612 89.625 l 1
 618.25 104.5 l 1
 318.673828125 104.5 l 1
 338.5 86 l 1
 338.5 671 l 1
 233.5 671 l 1
 233.5 106 l 2
 233.5 51.9768045088 274.794809769 -0.5 335 -0.5 c 2
 640 -0.5 l 2
 710.88170897 -0.5 764.741295873 84.5049161481 707.440621015 141.80559101 c 2
 430.258039659 428.636933109 l 1
 512.689271381 489.551836957 652.727199854 544.138498934 731.227083892 571.406879705 c 1
 696.772916108 670.593120295 l 1
 612.877091697 641.450360237 448.253934915 585.273801991 321 477.274917784 c 0
 287.257940723 448.638437857 303.255813859 408.50596124 322.141708158 389 c 2
EndSplineSet
EndChar
StartChar: uni0644.int
Encoding: 65543 -1 35
Width: 297
VWidth: 0
Flags: HW
LayerCount: 2
Fore
SplineSet
87 660 m 1
 192 660 l 1
 192 104 l 2
 192 44 143 0 86 0 c 2
 0 0 l 1
 0 105 l 1
 106 105 l 17
 107 105 87 84 87 84 c 1
 87 660 l 1
EndSplineSet
EndChar
StartChar: uni0647.init
Encoding: 65552 -1 42
Width: 1000
VWidth: 0
Flags: HW
LayerCount: 2
Fore
SplineSet
440.189285868 395.506259968 m 1
 441.810714132 500.493740032 l 1
 731.32488434 496.022478717 864.725408096 280.707823302 860.512533771 104.859948456 c 0
 859.543423253 45.5563250561 814.339728084 0.5 756 0.5 c 2
 192 0.5 l 1
 192 105.5 l 1
 775.5 105.5 l 1
 755.495117188 85.5 l 1
 761.850585938 236.999023438 668.989286083 391.972669231 440.189285868 395.506259968 c 1
514.795363256 0.506025133434 m 1
 513.204636744 105.493974867 l 1
 541.591906435 105.924085013 555.014401273 121.387820489 554.669459278 137.717564669 c 0
 554.490711932 146.179562512 551.09595655 161.081764965 537.994274873 181.36823982 c 0
 495.946596369 245.517903177 445.130843815 242.145389314 430.218238707 232.25835941 c 0
 423.136483525 227.56316868 416.5 219.998560737 416.5 200 c 2
 416.5 103 l 1
 311.5 103 l 1
 311.5 200 l 2
 311.5 250.335176059 334.246575392 294.610358398 372.19716624 319.771530703 c 0
 451.265109369 372.193432348 562.588614898 335.383505273 626.005725127 238.63176018 c 0
 647.348487895 205.584901702 658.953732512 172.709326376 659.646041408 139.935041641 c 0
 661.565845641 49.0504511155 581.741426899 1.52035943105 514.795363256 0.506025133434 c 1
EndSplineSet
EndChar
StartChar: uni0647.medi
Encoding: 65537 -1 29
Width: 1000
VWidth: 0
Flags: HW
LayerCount: 2
Fore
SplineSet
655 -271 m 1
 550 -271 l 1
 550 1 l 2
 550 61 599 105 656 105 c 2
 795 105 l 1
 795 0 l 1
 636 0 l 17
 635 0 655 21 655 21 c 1
 655 -271 l 1
560.555338466 -252.085511833 m 1
 457.444661534 -271.914488167 l 1
 440.093917934 -181.690621448 416.678384112 -197.478233149 368.368801535 -119.646127885 c 0
 339.102753558 -72.3039914519 337.312125127 -20.8141782081 331.491586614 0.5 c 1
 206 0.5 l 1
 206 105.5 l 1
 344.049804688 105.5 l 2
 450.80078125 105.5 442.763375507 -40.3029820353 457.656214901 -64.3943398793 c 0
 481.291221467 -102.472961568 537.91087912 -134.334323233 560.555338466 -252.085511833 c 1
EndSplineSet
EndChar
StartChar: uni0648.fina
Encoding: 65541 -1 33
Width: 1000
VWidth: 0
Flags: HW
LayerCount: 2
Fore
SplineSet
730 104.5 m 1
 730 -0.5 l 1
 605 -0.5 l 1
 605 104.5 l 1
 730 104.5 l 1
EndSplineSet
Refer: 13 1608 N 1 0 0 1 0 0 2
EndChar
StartChar: uni0649.fina.alt1
Encoding: 65547 -1 39
Width: 1000
VWidth: 0
Flags: HW
LayerCount: 2
Fore
SplineSet
553.5 58 m 1
 658.5 58 l 1
 658.5 -83 l 2
 658.5 -139.950195312 614.989257812 -187.5 555 -187.5 c 2
 416 -187.5 l 2
 287.659179688 -187.5 189.5 -118.169921875 189.5 -3 c 2
 189.5 187 l 1
 294.5 187 l 1
 294.5 -3 l 2
 294.5 -27.830078125 321.340820312 -82.5 416 -82.5 c 2
 573.340820312 -82.5 l 1
 553.5 -102.233398438 l 1
 553.5 58 l 1
759 105.5 m 1
 759 0.5 l 1
 506 0.5 l 1
 506 105.5 l 1
 759 105.5 l 1
EndSplineSet
EndChar
StartChar: uni0649.fina.alt2
Encoding: 65548 -1 40
Width: 1000
VWidth: 0
Flags: HW
LayerCount: 2
Fore
SplineSet
856 105.5 m 1
 856 0.5 l 1
 745 0.5 l 2
 691.535125405 0.5 648.079101562 43.2109375 645.509279622 96.5431212873 c 2
 641.559422769 178.502829656 l 2
 640.558987967 199.51196051 629.808332505 216.192717579 588.455967697 193.084043128 c 0
 551.850007257 172.950764886 496.666666667 136.666666667 470.999023438 103 c 1
 473.008789062 139.99609375 l 1
 602.128390554 -7.85262612654 l 2
 661.1796875 -75.46875 600.245797356 -162.5 525 -162.5 c 2
 259.706620459 -162.5 l 2
 154.884337258 -163.218172366 91.5 -76.3552715819 91.5 14 c 2
 91.5 217 l 1
 196.5 217 l 1
 196.5 14 l 2
 196.5 -31.2115208779 223.0546875 -57.5 258.619585192 -57.5 c 2
 525.9375 -57.5 l 1
 518.5 -72 l 1
 412.146821741 49.538787545 l 2
 373.596679688 93.59375 370.587691308 156.029657572 414.175901829 196.355311345 c 0
 451.39948842 232.159389401 496.10095449 262.122264075 537.544032303 284.915956872 c 0
 607.691952163 324.116265029 692.511083748 311.287308531 729.753346527 244.027472226 c 0
 752.090948546 203.685577211 748.428379043 142.561337704 751.19921875 85.5 c 1
 730.5 105.5 l 1
 856 105.5 l 1
EndSplineSet
EndChar
StartChar: uni0664.alt
Encoding: 65536 -1 28
Width: 1000
VWidth: 0
Flags: HW
LayerCount: 2
Fore
SplineSet
513.005918787 657.374720409 m 1
 574.994081213 572.625279591 l 1
 382.5 432 l 1
 386 462.5 l 1
 529.5 332 l 2
 553.663085938 309.995117188 556.5546875 264.01953125 534.5 239.5 c 2
 395.981445312 85.5 l 1
 394.5 105.5 l 1
 665 105.5 l 1
 665 0.5 l 1
 349.104492188 0.5 l 2
 319.854492188 0.5 294.58203125 35.2080078125 288.084960938 54.2626953125 c 0
 275.416015625 91.421875 293.987354846 130.752513743 321.529341993 159.734298045 c 2
 430.044644386 280.306856259 l 1
 397.624071957 309.956713188 332.66075079 369.134250739 332.66075079 369.134250739 c 2
 315.318359375 384.953125 290.245262782 411.817675486 291.788264384 454.028045234 c 0
 293.055641321 488.698423427 315.863391938 513.4800459 338.193179722 529.511688407 c 2
 513.005918787 657.374720409 l 1
EndSplineSet
EndChar
StartChar: uni066E.init
Encoding: 65545 -1 37
Width: 1000
VWidth: 0
Flags: HW
LayerCount: 2
Fore
SplineSet
619 376 m 1
 724 376 l 1
 724 104 l 2
 724 44 675 0 618 0 c 2
 329 0 l 1
 329 105 l 1
 638 105 l 17
 639 105 619 84 619 84 c 1
 619 376 l 1
EndSplineSet
EndChar
StartChar: uni066F.fina
Encoding: 65561 -1 53
Width: 1000
VWidth: 0
Flags: HW
LayerCount: 2
Fore
SplineSet
934 106 m 1
 934 0 l 1
 660 0 l 2
 576 -1 472 -14 409 90 c 0
 351 186 401 297 470 342 c 0
 547 391 677 386 738 290 c 0
 755 262 764 228 764 191 c 2
 764 -93 l 2
 764 -148 720 -200 657 -200 c 2
 235 -200 l 2
 154 -200 84 -142 84 -53 c 2
 84 189 l 1
 188 189 l 1
 188 -53 l 2
 188 -80 202 -94 235 -94 c 2
 679 -94 l 17
 660 -114 l 1
 660 191 l 2
 660 221 644 243 621 256 c 0
 593 272 555 272 526 254 c 0
 497 235 477 180 499 144 c 0
 526 99 555 104 660 105 c 2
 934 106 l 1
EndSplineSet
EndChar
StartChar: uni066F.init
Encoding: 65562 -1 54
Width: 1000
VWidth: 0
Flags: HW
LayerCount: 2
Fore
SplineSet
305 105.5 m 9
 679 105.5 l 17
 659.5 86.0048828125 l 1
 659.5 331 l 2
 659.5 367.80078125 633.4453125 396.053710938 600 405.290039062 c 0
 576.969726562 411.650390625 550.434570312 408.993164062 526.490234375 393.901367188 c 0
 497.3046875 374.53125 477.05078125 320.2578125 498.932617188 284.153320312 c 0
 526.109375 239.051757812 547.287109375 228.379882812 712.5 236.4375 c 1
 712.5 160.431640625 l 1
 604.955078125 156.529296875 471.6953125 125.911132812 409.067382812 229.846679688 c 0
 351.05859375 325.561523438 400.163085938 436.810546875 469.513671875 482.100585938 c 0
 546.286132812 531.149414062 676.8984375 525.708007812 737.538085938 429.681640625 c 0
 754.950195312 402.108398438 764.5 368.264648438 764.5 331 c 2
 764.5 107 l 2
 764.5 52.3720703125 720.333984375 0.5 657 0.5 c 2
 305 0.5 l 17
 305 105.5 l 9
EndSplineSet
EndChar
StartChar: uni06A1.fina
Encoding: 65560 -1 51
Width: 1000
VWidth: 0
Flags: HW
LayerCount: 2
Fore
SplineSet
934 106 m 1
 934 0 l 1
 660 0 l 2
 576 -1 472 -14 409 90 c 0
 351 186 401 297 470 342 c 0
 547 391 677 386 738 290 c 0
 755 262 764 228 764 191 c 2
 764 -93 l 2
 764 -148 720 -200 657 -200 c 2
 165 -200 l 2
 84 -200 14 -142 14 -53 c 2
 14 99 l 1
 118 99 l 1
 118 -53 l 2
 118 -80 132 -94 165 -94 c 2
 679 -94 l 17
 660 -114 l 1
 660 191 l 2
 660 221 644 243 621 256 c 0
 593 272 555 272 526 254 c 0
 497 235 477 180 499 144 c 0
 526 99 555 104 660 105 c 2
 934 106 l 1
EndSplineSet
EndChar
StartChar: uni06BA.fina
Encoding: 65546 -1 38
Width: 675
VWidth: 0
Flags: HW
LayerCount: 2
Fore
SplineSet
675.5 105.5 m 1
 675.5 0.5 l 1
 554.5 0.5 l 1
 554.5 105.5 l 1
 675.5 105.5 l 1
EndSplineSet
Refer: 24 1722 N 1 0 0 1 0 0 2
EndChar
StartChar: uni06D2.fina
Encoding: 65558 -1 47
Width: 1000
VWidth: 0
Flags: HW
LayerCount: 2
Fore
SplineSet
803 -170.5 m 1
 803 -275.5 l 1
 365 -275.5 l 2
 250.238649703 -275.5 170.562254899 -223.549102347 149.727860659 -145.246773205 c 0
 126.887716042 -59.4061914815 181.04363731 32.2583526608 274.657500519 56.7762692153 c 0
 367.409141483 81.2289745604 331.532929091 84.678351219 364.706300568 141.546988037 c 0
 394.024617862 191.332809859 443.29218922 232.635278069 514 233.32473507 c 0
 572.422489804 233.894400488 629.301499378 202.823000293 659.52523126 145.324193299 c 0
 676.989289234 111.739466425 689.14212472 105.5 729 105.5 c 10
 803 105.5 l 1
 803 0.5 l 1
 729 0.5 l 18
 660.85787528 0.5 601.010710766 30.2605335746 566.47476874 96.6758067011 c 0
 554.626953334 119.215553083 533.744472836 130.21438985 512 128.497929407 c 0
 485.224705546 126.384347067 468.835681133 111.448829946 455.293699432 88.4530119626 c 0
 446.473249817 73.3322411936 428.550290732 -11.2396697038 301.383613389 -44.7654300944 c 0
 260.271209108 -55.5329645489 244.26804432 -92.2052827495 251.197427752 -118.248125944 c 0
 256.306409946 -137.449318007 278.490019685 -170.5 365 -170.5 c 2
 803 -170.5 l 1
EndSplineSet
EndChar
